<?xml version="1.0" encoding="UTF-8"?>
<svg version="1.1" xmlns="http://www.w3.org/2000/svg" width="355" height="267">
<path d="M0 0 C3.69230769 0.69230769 3.69230769 0.69230769 5 2 C5.14161565 3.54683312 5.21707321 5.09979292 5.26538086 6.65234375 C5.29889145 7.64427734 5.33240204 8.63621094 5.3669281 9.65820312 C5.39924026 10.74037109 5.43155243 11.82253906 5.46484375 12.9375 C5.54343039 15.21745445 5.62221282 17.49740216 5.70117188 19.77734375 C5.82038858 23.38028299 5.93697735 26.983273 6.04956055 30.58642578 C6.15985356 34.05790451 6.28054695 37.52890847 6.40234375 41 C6.43263168 42.06597412 6.46291962 43.13194824 6.49412537 44.23022461 C6.71666384 50.40420772 7.46300244 56.01260903 9 62 C12.33534326 60.33232837 13.03955135 56.62807201 14.375 53.3125 C14.83918335 52.1680542 14.83918335 52.1680542 15.31274414 51.00048828 C18.93970997 41.87567599 22.31316713 32.94618819 22 23 C22.66 23 23.32 23 24 23 C24 22.34 24 21.68 24 21 C25.875 21.25 25.875 21.25 28 22 C29.25 24.0625 29.25 24.0625 30 26 C30.66 26 31.32 26 32 26 C34.475 20.06 34.475 20.06 37 14 C37.66 14 38.32 14 39 14 C39 13.34 39 12.68 39 12 C41.3125 11.75 41.3125 11.75 44 12 C47.26843816 15.26843816 48.04719373 19.26294342 49.0625 23.625 C50.10062649 28.76733695 50.10062649 28.76733695 53 33 C57.40656009 32.77346043 59.36565027 31.08413616 62.3125 27.9375 C63.00988281 27.20402344 63.70726562 26.47054687 64.42578125 25.71484375 C64.94527344 25.14894531 65.46476563 24.58304688 66 24 C66.99 24.66 67.98 25.32 69 26 C68.42082372 31.92865903 65.04463452 34.43725203 60.703125 38.15234375 C58.13329427 39.9088899 56.74897629 40.69388213 53.6875 40.875 C49.14138238 39.79626022 47.71292928 38.79810099 45 35 C44.04700403 32.68729011 43.27264208 30.39082581 42.578125 27.98828125 C42.0502825 25.95081329 42.0502825 25.95081329 41 24 C34.31445966 35.27310777 36.41001846 54.31942915 36 67 C33.525 67.495 33.525 67.495 31 68 C29.01704668 65.02557001 28.62728393 63.74925353 28.1484375 60.33203125 C28.01953125 59.43935547 27.890625 58.54667969 27.7578125 57.62695312 C27.63148438 56.69818359 27.50515625 55.76941406 27.375 54.8125 C27.2409375 53.87212891 27.106875 52.93175781 26.96875 51.96289062 C26.6389912 49.64280192 26.31635549 47.32194786 26 45 C24.70232842 47.59211333 23.41087394 50.18717283 22.125 52.78515625 C21.41672087 54.21096443 20.70838597 55.6367449 20 57.0625 C19.46632813 58.14241211 19.46632813 58.14241211 18.921875 59.24414062 C18.57640625 59.93830078 18.2309375 60.63246094 17.875 61.34765625 C17.40707031 62.29137085 17.40707031 62.29137085 16.9296875 63.25415039 C14.5038143 67.80967015 14.5038143 67.80967015 11.1875 69.0625 C8 69 8 69 5.3125 66.75 C2.12205501 62.40687811 1.13406901 57.18168118 0 52 C-1.32 52 -2.64 52 -4 52 C-4 52.66 -4 53.32 -4 54 C-7.44540038 57.34406507 -10.14486077 59 -15 59 C-19.01525215 57.11046957 -20.68415875 55.55798621 -22.875 51.6875 C-24.02842814 47.90681886 -24.24042924 44.92701096 -24 41 C-24.66 41 -25.32 41 -26 41 C-26.556875 42.8871875 -26.556875 42.8871875 -27.125 44.8125 C-28.7217482 49.64058223 -31.03717269 53.84035918 -33.52734375 58.2578125 C-35.25726717 61.4790492 -36.60282363 64.73496174 -37.8659668 68.16186523 C-39 71 -39 71 -40.48144531 73.98901367 C-44.65049027 82.61587687 -45.83522211 89.7991591 -45.76480103 99.32870483 C-45.74441768 102.31892091 -45.79268501 105.30695993 -45.83747864 108.29679871 C-45.85975885 109.79074602 -45.87915149 111.2847394 -45.89555359 112.77876282 C-46.15979936 134.9652622 -46.68058876 170.31858821 -62.51953125 187.6640625 C-65.88423078 190.70028213 -69.15735523 191.20253539 -73.5625 191 C-75.81640625 190.875 -75.81640625 190.875 -78 190 C-83.15263679 183.97662145 -82.84032439 177.86831587 -82.26611328 170.37158203 C-79.62058169 146.79479869 -68.90339497 124.39884303 -59.83203125 102.7421875 C-59.36192627 101.59814453 -58.89182129 100.45410156 -58.4074707 99.27539062 C-57 96 -57 96 -55.53588867 93.17773438 C-50.79294426 83.62302208 -51.4365251 74.15456714 -51.6875 63.75 C-51.71263326 61.92581207 -51.73543748 60.1015905 -51.75585938 58.27734375 C-51.81041305 53.8507173 -51.89640124 49.42573907 -52 45 C-52.495 45.99 -52.495 45.99 -53 47 C-53.66 47 -54.32 47 -55 47 C-55 47.99 -55 48.98 -55 50 C-55.66 50 -56.32 50 -57 50 C-57.37125 50.86625 -57.37125 50.86625 -57.75 51.75 C-59.53195718 54.95752293 -61.7014109 57.35070545 -65 59 C-70.3401391 59.35017306 -73.66462219 59.46830225 -78 56 C-81.10033663 52.65163644 -81.60640743 49.71994284 -82.1875 45.25 C-82.34605469 44.07953125 -82.50460938 42.9090625 -82.66796875 41.703125 C-82.77753906 40.81109375 -82.88710937 39.9190625 -83 39 C-83.58007812 39.92941406 -84.16015625 40.85882813 -84.7578125 41.81640625 C-96.14595529 59.90935171 -96.14595529 59.90935171 -104 64 C-107.0625 64.5625 -107.0625 64.5625 -110 64 C-116.43871874 58.87829191 -117.43042469 52.66420283 -119 45 C-119.53109375 45.68707031 -120.0621875 46.37414062 -120.609375 47.08203125 C-121.66898438 48.43361328 -121.66898438 48.43361328 -122.75 49.8125 C-123.44609375 50.70582031 -124.1421875 51.59914062 -124.859375 52.51953125 C-127.3010079 55.34879565 -129.28734087 57.59859552 -133 58.46875 C-136.70327142 58.52661362 -138.42535287 58.46879108 -141.375 56.0625 C-146.31366978 46.75500696 -146.2832977 35.02908685 -143.6953125 24.96875 C-142.01317834 20.20585328 -139.29261075 16.63095498 -135 14 C-128.23596628 11.74532209 -121.70756455 13.26100178 -115 15 C-114.67 14.01 -114.34 13.02 -114 12 C-112.68 12.33 -111.36 12.66 -110 13 C-109.97250132 14.83324547 -109.95338327 16.6666171 -109.9375 18.5 C-109.92589844 19.5209375 -109.91429687 20.541875 -109.90234375 21.59375 C-109.9921602 24.72654791 -110.3529563 27.73787434 -110.77075195 30.84033203 C-111.18930684 34.78339538 -111.1437583 38.72637131 -111.125 42.6875 C-111.12886719 43.51572266 -111.13273437 44.34394531 -111.13671875 45.19726562 C-111.13020965 49.26219926 -111.01755932 53.03474899 -110 57 C-107.39286587 57.47402439 -105.63870718 57.41196035 -103.38183594 55.95629883 C-98.62192161 51.95685625 -95.45467271 47.64997404 -92.3125 42.3125 C-91.83482178 41.52174072 -91.35714355 40.73098145 -90.86499023 39.91625977 C-87.81705012 34.75062584 -85.43026521 29.69533853 -83.87890625 23.87109375 C-83 22 -83 22 -80.90234375 21.22265625 C-80.27457031 21.14917969 -79.64679688 21.07570313 -79 21 C-76.3400793 24.04936026 -75.62142802 25.96402141 -75.55859375 29.9921875 C-75.51895508 31.42111328 -75.51895508 31.42111328 -75.47851562 32.87890625 C-75.46498047 33.86761719 -75.45144531 34.85632813 -75.4375 35.875 C-75.35985367 44.62702816 -75.35985367 44.62702816 -73 53 C-68.09757947 52.63982736 -68.09757947 52.63982736 -63.8125 50.4375 C-56.33338532 40.37938026 -54.16519298 27.10798708 -52 15 C-50.34385343 14.61781233 -48.67542976 14.28604898 -47 14 C-43.57920787 17.42079213 -44.97382876 28.16644267 -44.97265625 33.11328125 C-44.98274278 35.21939704 -45.00011692 37.32534516 -45.01928711 39.43139648 C-45.06319201 47.31008537 -44.55061966 55.14383736 -44 63 C-35.28947106 51.86849311 -30.51845704 36.93923934 -25 24 C-24.34 24 -23.68 24 -23 24 C-23 23.34 -23 22.68 -23 22 C-21.0625 22.3125 -21.0625 22.3125 -19 23 C-18.00567715 25.98296854 -17.71277619 28.41901995 -17.46484375 31.54296875 C-17.37783203 32.61611328 -17.29082031 33.68925781 -17.20117188 34.79492188 C-17.11416016 35.91447266 -17.02714844 37.03402344 -16.9375 38.1875 C-16.84662109 39.31865234 -16.75574219 40.44980469 -16.66210938 41.61523438 C-16.43806386 44.40990736 -16.21749856 47.20481111 -16 50 C-14.12919471 50.67640375 -14.12919471 50.67640375 -12 51 C-7.07389864 47.30542398 -5.24434798 42.59986823 -3 37 C-2.67 36.34 -2.34 35.68 -2 35 C-1.8556203 32.46051729 -1.7659986 29.94393619 -1.71875 27.40234375 C-1.69113586 26.27814781 -1.69113586 26.27814781 -1.66296387 25.13124084 C-1.58415897 21.918289 -1.51639931 18.7051258 -1.44775391 15.49194336 C-1.39614605 13.14946744 -1.33885937 10.80717848 -1.28125 8.46484375 C-1.26767456 7.73257065 -1.25409912 7.00029755 -1.2401123 6.24583435 C-1.11282902 1.11282902 -1.11282902 1.11282902 0 0 Z M-134.5 21.0625 C-139.18730843 30.24181234 -140.08090088 40.20864378 -137 50 C-136.67 50.66 -136.34 51.32 -136 52 C-130.84947685 51.42771965 -128.24021126 47.44112548 -125.046875 43.73046875 C-122.84099398 40.78789083 -121.30363252 37.89339396 -119.75 34.5625 C-119.22921875 33.47066406 -118.7084375 32.37882812 -118.171875 31.25390625 C-116.95862787 27.88512337 -116.6212296 25.54713365 -117 22 C-119.97334482 19.02665518 -123.01786681 18.7270252 -127.0625 18.5 C-130.65977401 18.62293804 -131.64790644 18.70952281 -134.5 21.0625 Z M32 31 C33 33 33 33 33 33 Z M-52 40 C-51 42 -51 42 -51 42 Z M-54 106 C-61.35516774 119.49794519 -66.10305729 133.97673981 -70.8125 148.5625 C-71.1024585 149.45372559 -71.39241699 150.34495117 -71.69116211 151.26318359 C-74.33869176 159.6232286 -76.29484503 167.67818993 -76.1875 176.5 C-76.18105469 177.6859375 -76.17460937 178.871875 -76.16796875 180.09375 C-76.19547727 182.93809597 -76.19547727 182.93809597 -75 185 C-72.2553656 185.58776634 -72.2553656 185.58776634 -69 185 C-60.01639562 178.1962408 -58.14643901 165.35007855 -56.375 155 C-56.05861572 153.18677246 -56.05861572 153.18677246 -55.73583984 151.33691406 C-54.31873303 142.83427317 -53.30353373 134.34228866 -52.625 125.75 C-52.54040527 124.68652344 -52.45581055 123.62304688 -52.36865234 122.52734375 C-51.98621721 116.83919163 -52.07106828 111.62744143 -53 106 C-53.33 106 -53.66 106 -54 106 Z " fill="#ECEAEA" transform="translate(272,71)"/>
<path d="M0 0 C1.91723633 0.12890625 1.91723633 0.12890625 4 1 C5.24487305 3.08984375 5.24487305 3.08984375 6.32421875 5.9375 C6.74622559 7.02804688 7.16823242 8.11859375 7.60302734 9.2421875 C8.06891446 10.4947063 8.53455975 11.74731507 9 13 C9.52555471 14.37810093 10.05246332 15.75568612 10.58056641 17.1328125 C12.03624301 20.94216392 13.47255516 24.75853257 14.90380859 28.57711792 C20.1066261 42.44960885 25.33416813 56.3084146 31 70 C31.40871338 70.9887915 31.40871338 70.9887915 31.82568359 71.99755859 C34.67018347 78.84251103 37.66318378 85.54894026 41.1171875 92.109375 C42 94 42 94 42 96 C45.25271167 94.65347928 46.58763039 93.57034914 48.078125 90.38671875 C48.60575439 89.27369385 48.60575439 89.27369385 49.14404297 88.13818359 C49.50900879 87.32945801 49.87397461 86.52073242 50.25 85.6875 C50.64203613 84.84010254 51.03407227 83.99270508 51.43798828 83.11962891 C54.54502569 76.28514928 57.22618152 69.32303398 59.83447266 62.28662109 C62.54715872 55.031019 65.52495242 47.91077905 68.625 40.8125 C69.06827637 39.78560059 69.51155273 38.75870117 69.96826172 37.70068359 C77.47687631 20.68208246 77.47687631 20.68208246 83 17 C85.6875 16.875 85.6875 16.875 88 17 C89.29215676 19.58431352 89.04409189 21.28635646 88.92993164 24.17602539 C88.86977875 25.81136986 88.86977875 25.81136986 88.80841064 27.47975159 C88.75948669 28.67366013 88.71056274 29.86756866 88.66015625 31.09765625 C88.56525397 33.66079779 88.47061986 36.22394926 88.3762207 38.78710938 C88.32432735 40.15194215 88.27229276 41.51676955 88.22012329 42.8815918 C84.24503881 98.31481441 84.24503881 98.31481441 90 153 C90.14308594 153.72574219 90.28617187 154.45148438 90.43359375 155.19921875 C90.85153523 157.22036284 90.85153523 157.22036284 93.0625 158.25 C94.0215625 158.62125 94.0215625 158.62125 95 159 C95.042721 160.66611905 95.04063832 162.33382885 95 164 C94 165 94 165 91.75 165.4375 C88.41940458 164.90763255 87.10611759 163.68218663 85.12890625 160.9921875 C75.64881882 144.26262144 78.67055881 118.85766351 78.74265671 100.39582825 C78.75006624 98.29370747 78.75370042 96.19160931 78.75637817 94.08947754 C78.83877999 40.48366002 78.83877999 40.48366002 82 31 C81.34 31 80.68 31 80 31 C79.73497681 31.83204956 79.73497681 31.83204956 79.46459961 32.6809082 C77.74379062 37.97669648 75.77783389 43.08174868 73.5625 48.1875 C70.95639656 54.26298647 68.44065817 60.36794547 66.01953125 66.51953125 C65.76049515 67.17575974 65.50145905 67.83198822 65.23457336 68.50810242 C64.19309014 71.14764976 63.15166866 73.78710113 62.12503052 76.4324646 C53.68913911 98.16517585 53.68913911 98.16517585 47 104 C44.125 104.75 44.125 104.75 41 104 C22.94136077 88.49312501 15.10839762 51.78147139 7 30 C7.02505615 30.57864304 7.0501123 31.15728607 7.07592773 31.75346375 C8.31417461 60.63132527 9.20599848 89.46948169 9.18847656 118.37369156 C9.18750486 120.36504344 9.18859588 122.35639598 9.18969727 124.3477478 C9.18946164 128.09386583 9.18077958 131.83984319 9.16796875 135.5859375 C9.16677536 136.68266281 9.16558197 137.77938812 9.16435242 138.90934753 C9.04028277 159.36239259 9.04028277 159.36239259 5 166 C2.3125 166.9375 2.3125 166.9375 0 167 C-1.09778893 163.5968543 -0.95080563 161.81012875 -0.04003906 158.29492188 C1.57096144 151.3584469 1.28670389 144.29631046 1.265625 137.21875 C1.26765851 135.66076056 1.27033871 134.10277185 1.27362061 132.54478455 C1.27899702 128.38873042 1.27012459 124.23282676 1.25714111 120.07679367 C1.24998245 117.49366561 1.24675934 114.91055985 1.24462891 112.3274231 C1.21830264 86.64365413 0.57606042 61.05503871 -0.67933655 35.40023804 C-1.05553562 27.43178374 -1.19181184 19.47744105 -1.1875 11.5 C-1.18814453 10.4061499 -1.18878906 9.3122998 -1.18945312 8.18530273 C-1.13731162 1.13731162 -1.13731162 1.13731162 0 0 Z " fill="#A6171C" transform="translate(28,4)"/>
<path d="M0 0 C1.65 0.33 3.3 0.66 5 1 C5.10037776 12.05270661 5.06442001 23.08129693 4.64208984 34.12744141 C3.91623528 53.27154362 3.91555446 72.40772311 3.9375 91.5625 C3.93835602 92.31304405 3.93921204 93.0635881 3.94009399 93.83687592 C3.95159992 103.22460711 3.97186887 112.61230293 4 122 C4.66 122 5.32 122 6 122 C6.13277344 122.74765625 6.26554687 123.4953125 6.40234375 124.265625 C6.57894531 125.25046875 6.75554687 126.2353125 6.9375 127.25 C7.11152344 128.22453125 7.28554687 129.1990625 7.46484375 130.203125 C8.08789448 133.63918888 8.08789448 133.63918888 9 137 C10.9837767 138.28436734 10.9837767 138.28436734 13 139 C13.042721 140.66611905 13.04063832 142.33382885 13 144 C12 145 12 145 9.75 145.4375 C6.41614706 144.90711431 5.10353227 143.67787742 3.1237793 140.98657227 C-2.17851339 131.61339051 -1.5515366 120.30784125 -1.6875 109.875 C-1.71916859 108.12311658 -1.75148921 106.37124484 -1.78442383 104.61938477 C-1.88129294 99.07980588 -1.94237438 93.54010307 -2 88 C-2.02211671 86.12386046 -2.0442521 84.24772113 -2.06640625 82.37158203 C-2.11756701 77.77487633 -2.15233765 73.17829619 -2.17422485 68.58135986 C-2.18294428 66.84481186 -2.19439426 65.10827501 -2.20883179 63.37176514 C-2.27858237 53.91543085 -1.92317729 44.85387595 -0.51000977 35.48999023 C0.28718161 30.03481995 0.70099783 24.55715107 1.125 19.0625 C1.21136719 17.98548828 1.29773438 16.90847656 1.38671875 15.79882812 C1.5946669 13.19947621 1.79908809 10.59990351 2 8 C0.68 8.33 -0.64 8.66 -2 9 C-2.6875 7.3125 -2.6875 7.3125 -3 5 C-1.5625 2.25 -1.5625 2.25 0 0 Z " fill="#B31518" transform="translate(110,24)"/>
<path d="M0 0 C0.66 0 1.32 0 2 0 C2.99 4.29 3.98 8.58 5 13 C5.66 13 6.32 13 7 13 C7.25394531 13.73605469 7.50789063 14.47210938 7.76953125 15.23046875 C8.11371094 16.20628906 8.45789062 17.18210937 8.8125 18.1875 C9.14894531 19.15042969 9.48539063 20.11335938 9.83203125 21.10546875 C10.97895417 23.94784295 12.42181762 26.38175474 14 29 C14 29.66 14 30.32 14 31 C13.34 31 12.68 31 12 31 C11.67 31.66 11.34 32.32 11 33 C10.01 30.69 9.02 28.38 8 26 C7.67 26.99 7.34 27.98 7 29 C6.34 27.35 5.68 25.7 5 24 C5 64.92 5 105.84 5 148 C4.34 148 3.68 148 3 148 C3.04125 149.093125 3.0825 150.18625 3.125 151.3125 C3 155 3 155 1 158 C0.34 158 -0.32 158 -1 158 C-0.83734146 156.93160889 -0.67468292 155.86321777 -0.50709534 154.76245117 C0.19371635 149.1131972 0.1317517 143.48562884 0.11352539 137.80078125 C0.11367142 136.59992386 0.11381744 135.39906647 0.1139679 134.16181946 C0.11339338 130.89171894 0.10840139 127.62166202 0.10139394 124.35157013 C0.09511406 120.92562553 0.09455295 117.49967994 0.09336853 114.07373047 C0.09026882 107.59640831 0.08207388 101.11910317 0.07201904 94.64178848 C0.06081553 87.26326929 0.0553368 79.88474926 0.05032361 72.50622368 C0.03989004 57.337473 0.0223171 42.16873821 0 27 C0.99 26.67 1.98 26.34 3 26 C2.67 25.01 2.34 24.02 2 23 C1.34 23 0.68 23 0 23 C-2.74626866 5.49253731 -2.74626866 5.49253731 0 0 Z " fill="#B51115" transform="translate(30,10)"/>
<path d="M0 0 C1.32 0.33 2.64 0.66 4 1 C4.05423638 2.91635217 4.09289963 4.83314925 4.125 6.75 C4.14820313 7.81734375 4.17140625 8.8846875 4.1953125 9.984375 C4 13 4 13 2 17 C2 13.37 2 9.74 2 6 C1.34 5.67 0.68 5.34 0 5 C-0.66 8.3 -1.32 11.6 -2 15 C-2.33 15 -2.66 15 -3 15 C-3.268125 14.030625 -3.53625 13.06125 -3.8125 12.0625 C-4.204375 11.051875 -4.59625 10.04125 -5 9 C-7.82855095 8.05714968 -9.98128958 7.70919916 -12.9375 7.5625 C-13.79214844 7.50191406 -14.64679688 7.44132812 -15.52734375 7.37890625 C-18.27304981 7.81707599 -18.27304981 7.81707599 -20.23046875 10.578125 C-24.94220983 19.68957132 -24.62271227 30.29596461 -22 40 C-16.06107964 37.73755415 -13.41662234 34.10070214 -10 29 C-8.66666667 29.66666667 -7.33333333 30.33333333 -6 31 C-5.01 30.01 -4.02 29.02 -3 28 C-3 30.31 -3 32.62 -3 35 C-3.66 34.34 -4.32 33.68 -5 33 C-5.53109375 33.68707031 -6.0621875 34.37414062 -6.609375 35.08203125 C-7.66898438 36.43361328 -7.66898438 36.43361328 -8.75 37.8125 C-9.44609375 38.70582031 -10.1421875 39.59914062 -10.859375 40.51953125 C-13.3010079 43.34879565 -15.28734087 45.59859552 -19 46.46875 C-22.70327142 46.52661362 -24.42535287 46.46879108 -27.375 44.0625 C-32.31366978 34.75500696 -32.2832977 23.02908685 -29.6953125 12.96875 C-28.01317834 8.20585328 -25.29261075 4.63095498 -21 2 C-14.23596628 -0.25467791 -7.70756455 1.26100178 -1 3 C-0.67 2.01 -0.34 1.02 0 0 Z " fill="#DEDBDB" transform="translate(158,83)"/>
<path d="M0 0 C0.66 0 1.32 0 2 0 C2.474375 0.804375 2.94875 1.60875 3.4375 2.4375 C4.79983672 5.2918076 4.79983672 5.2918076 8 6 C8.73046875 7.84765625 8.73046875 7.84765625 9.1875 10.0625 C9.34605469 10.79597656 9.50460937 11.52945313 9.66796875 12.28515625 C9.77753906 12.85105469 9.88710938 13.41695312 10 14 C9.01 14 8.02 14 7 14 C6.34 14.66 5.68 15.32 5 16 C4.34 15.34 3.68 14.68 3 14 C2.9484375 14.6084375 2.896875 15.216875 2.84375 15.84375 C1.51716495 26.09463447 -3.30363087 35.4554463 -9 44 C-11.8125 45.0625 -11.8125 45.0625 -15 45 C-20.66420843 40.38959779 -21.80446791 33.97879707 -23 27 C-23 25.68 -23 24.36 -23 23 C-23.99 23.33 -24.98 23.66 -26 24 C-26.9199404 16.9471236 -23.8742174 12.73061323 -20 7 C-19.01 7.33 -18.02 7.66 -17 8 C-16.98018066 8.589021 -16.96036133 9.17804199 -16.93994141 9.78491211 C-16.84356723 12.50282351 -16.73435288 15.22008103 -16.625 17.9375 C-16.5940625 18.86369141 -16.563125 19.78988281 -16.53125 20.74414062 C-16.27928905 26.72821322 -15.46575193 32.19061735 -14 38 C-10.58134137 36.29067069 -9.90576981 32.28593565 -8.5625 28.875 C-7.96008992 27.37221356 -7.35722992 25.86960739 -6.75390625 24.3671875 C-6.46273926 23.63725586 -6.17157227 22.90732422 -5.87158203 22.15527344 C-4.62884413 19.08219496 -3.31888387 16.04109615 -2 13 C-1.34 13 -0.68 13 0 13 C0 12.34 0 11.68 0 11 C0.66 11 1.32 11 2 11 C2 10.34 2 9.68 2 9 C1.34 9 0.68 9 0 9 C0 6.03 0 3.06 0 0 Z " fill="#F1EFF0" transform="translate(295,95)"/>
<path d="M0 0 C1.25488651 2.50977303 1.04853067 4.03974219 0.92993164 6.84277344 C0.88982468 7.86596176 0.84971771 8.88915009 0.80839539 9.94334412 C0.75947647 11.07063431 0.71055756 12.1979245 0.66015625 13.359375 C0.56500029 15.81483715 0.47046602 18.27032345 0.37646484 20.72583008 C0.32496277 22.03323151 0.27346069 23.34063293 0.22039795 24.68765259 C-0.73380992 49.06743872 -1.19127705 73.41410909 -1.125 97.8125 C-1.12322124 98.50180099 -1.12144249 99.19110199 -1.11960983 99.90129089 C-1.09695418 108.26762995 -1.05794011 116.63382856 -1 125 C-1.33 125 -1.66 125 -2 125 C-2.870506 111.28011163 -3.16066075 97.62063788 -3.125 83.875 C-3.12411377 82.87886688 -3.12322754 81.88273376 -3.12231445 80.85641479 C-3.10752462 66.58892339 -2.86695771 52.34552662 -2.3581543 38.08764648 C-1.95600283 26.72088967 -1.89671857 15.37243281 -2 4 C-3.65 4.33 -5.3 4.66 -7 5 C-7.33 6.98 -7.66 8.96 -8 11 C-6.68 11 -5.36 11 -4 11 C-3.86913972 18.12364607 -4.24773542 25.09906828 -4.9375 32.1875 C-5.06801758 33.60579102 -5.06801758 33.60579102 -5.20117188 35.05273438 C-5.55268079 38.78914399 -5.91845108 42.49019759 -6.51147461 46.19747925 C-7.00178344 50.01388174 -7.12019126 53.64964053 -7.11352539 57.49584961 C-7.11367142 58.20888245 -7.11381744 58.92191528 -7.1139679 59.65655518 C-7.11327713 61.9885168 -7.1055243 64.32039626 -7.09765625 66.65234375 C-7.0957891 68.27901669 -7.0943666 69.90569019 -7.09336853 71.53236389 C-7.08956677 75.79515154 -7.07975668 80.05790463 -7.06866455 84.32067871 C-7.0583999 88.67797376 -7.05386012 93.03527444 -7.04882812 97.39257812 C-7.03813213 105.9284012 -7.02108409 114.46419629 -7 123 C-7.33 123 -7.66 123 -8 123 C-8.91379258 114.74180186 -9.1598105 106.57397837 -9.16796875 98.26953125 C-9.17206757 96.97152084 -9.17616638 95.67351044 -9.1803894 94.33616638 C-9.18963488 90.87247955 -9.19079141 87.40884172 -9.18867874 83.94514465 C-9.18749663 81.80640506 -9.18803189 79.66767039 -9.18869019 77.52893066 C-9.18511651 23.55534953 -9.18511651 23.55534953 -6 14 C-6.66 14 -7.32 14 -8 14 C-8.19335938 14.62648438 -8.38671875 15.25296875 -8.5859375 15.8984375 C-8.84632812 16.71570313 -9.10671875 17.53296875 -9.375 18.375 C-9.63023438 19.18710937 -9.88546875 19.99921875 -10.1484375 20.8359375 C-11 23 -11 23 -13 25 C-12.979375 24.030625 -12.95875 23.06125 -12.9375 22.0625 C-12.64381501 19.12534105 -12.64381501 19.12534105 -14 18 C-14.33 19.32 -14.66 20.64 -15 22 C-15.66 22 -16.32 22 -17 22 C-17 22.99 -17 23.98 -17 25 C-17.66 25 -18.32 25 -19 25 C-17.29812075 18.81949113 -14.82898168 13.67632983 -11.40234375 8.26171875 C-9.97563284 6.06507535 -9.97563284 6.06507535 -9.00390625 3.83203125 C-6.83872302 -0.11921753 -4.08359942 -0.2207351 0 0 Z " fill="#89131B" transform="translate(116,21)"/>
<path d="M0 0 C0.33 0 0.66 0 1 0 C2.69340644 26.02224241 3.32280209 51.9499729 3.26074219 78.02490234 C3.24910767 82.98016948 3.25610217 87.93522553 3.26788712 92.89048576 C3.27511119 96.76988325 3.27281934 100.64923031 3.26763153 104.5286293 C3.26630886 106.35855257 3.26789355 108.18848057 3.27259064 110.01839828 C3.27769159 112.55129049 3.26990667 115.08383302 3.25878906 117.61669922 C3.26283752 118.35110229 3.26688599 119.08550537 3.27105713 119.84216309 C3.23053092 124.84736759 2.36391595 129.18102492 1 134 C3.7972908 131.93243723 4.02692273 130.85559629 4.6875 127.3125 C4.8421875 125.6728125 4.8421875 125.6728125 5 124 C5.66 124 6.32 124 7 124 C6.96970703 123.10023438 6.93941406 122.20046875 6.90820312 121.2734375 C6.24916665 101.03594832 5.89229175 80.81114391 5.875 60.5625 C5.87250244 59.54583252 5.87000488 58.52916504 5.86743164 57.48168945 C5.8441017 45.94270086 6.00910989 34.50132245 7 23 C7.33 23 7.66 23 8 23 C8.90761027 44.28780582 9.11236984 65.57190055 9.12338257 86.87652969 C9.12499329 88.92895236 9.12854997 90.98136371 9.13256836 93.03378296 C9.13961082 96.94831498 9.13694995 100.86280675 9.1328125 104.77734375 C9.13479645 105.94714783 9.1367804 107.1169519 9.13882446 108.32220459 C9.08011477 129.2969543 9.08011477 129.2969543 5 136 C2.3125 136.9375 2.3125 136.9375 0 137 C-1.09295579 133.61183706 -0.95621869 131.83340663 -0.0378418 128.33886719 C1.6275 121.17060588 1.26652483 113.82974208 1.23046875 106.515625 C1.229272 104.894023 1.22882483 103.27242029 1.2290802 101.65081787 C1.22751993 98.24828753 1.21928195 94.84586303 1.20581055 91.44335938 C1.18908998 87.17551092 1.18507281 82.90778024 1.18563557 78.63990307 C1.18499285 60.41532861 0.96749691 42.23063616 0.21826172 24.01977539 C-0.10187992 16.01311815 -0.09652009 8.01116757 0 0 Z " fill="#89181F" transform="translate(28,34)"/>
<path d="M0 0 C1.65 0.33 3.3 0.66 5 1 C6.39505679 16.49509501 6.09646365 31.84366721 5.5625 47.375 C5.52334473 48.55860107 5.48418945 49.74220215 5.44384766 50.96166992 C5.40179199 52.07517822 5.35973633 53.18868652 5.31640625 54.3359375 C5.26141968 55.82939697 5.26141968 55.82939697 5.20532227 57.35302734 C5.02365621 59.69502891 4.65604521 61.75136918 4 64 C4.66 64.33 5.32 64.66 6 65 C5.34 68.96 4.68 72.92 4 77 C2.02 77.495 2.02 77.495 0 78 C-0.66 77.01 -1.32 76.02 -2 75 C-1.67468292 74.43835144 -1.34936584 73.87670288 -1.01419067 73.29803467 C0.11990465 70.72831041 0.24208356 69.02754151 0.22705078 66.23144531 C0.22689972 65.29077209 0.22674866 64.35009888 0.22659302 63.38092041 C0.21627045 62.37349792 0.20594788 61.36607544 0.1953125 60.328125 C0.1924826 59.29057068 0.18965271 58.25301636 0.18673706 57.184021 C0.17554865 53.87256299 0.15044627 50.56137616 0.125 47.25 C0.11496848 45.00391016 0.10584293 42.75781607 0.09765625 40.51171875 C0.0756137 35.00772009 0.04214932 29.50387942 0 24 C-0.99 26.475 -0.99 26.475 -2 29 C-2.99 29 -3.98 29 -5 29 C-4.67 26.36 -4.34 23.72 -4 21 C-3.34 21 -2.68 21 -2 21 C-2 20.34 -2 19.68 -2 19 C-1.34 19 -0.68 19 0 19 C0 18.34 0 17.68 0 17 C-0.66 17 -1.32 17 -2 17 C-2.3690205 5.47835991 -2.3690205 5.47835991 0 0 Z " fill="#FDFBFC" transform="translate(221,85)"/>
<path d="M0 0 C1.09658936 3.28976808 0.79953138 4.71303767 0 8 C0.99 8.33 1.98 8.66 3 9 C2.67 12.96 2.34 16.92 2 21 C1.67 19.68 1.34 18.36 1 17 C0.34 17 -0.32 17 -1 17 C-1.37125 18.258125 -1.7425 19.51625 -2.125 20.8125 C-3.72051135 25.63684238 -6.03191763 29.83377161 -8.5234375 34.24609375 C-10.29732512 37.55453494 -11.65343327 40.92641558 -12.98828125 44.4296875 C-14.80154797 49.0363651 -16.9172794 53.51020067 -19 58 C-21.0625 56.25 -21.0625 56.25 -23 54 C-22.72326861 52.65377987 -22.3760353 51.32192524 -22 50 C-21.85321886 47.90352557 -21.75294862 45.80358677 -21.68359375 43.703125 C-21.62075195 41.89521484 -21.62075195 41.89521484 -21.55664062 40.05078125 C-21.51732422 38.79652344 -21.47800781 37.54226562 -21.4375 36.25 C-21.39431641 34.98027344 -21.35113281 33.71054688 -21.30664062 32.40234375 C-21.20060278 29.26833635 -21.09853942 26.13425067 -21 23 C-20.67 23 -20.34 23 -20 23 C-19.67 28.28 -19.34 33.56 -19 39 C-10.45644989 27.60859985 -5.56691688 13.05286411 0 0 Z " fill="#F0ECEF" transform="translate(247,95)"/>
<path d="M0 0 C2.64115296 4.62729999 2.61441567 8.78495964 2 14 C0.9781155 17.49758405 -0.4305355 20.71644457 -2 24 C-2.34675781 24.75925781 -2.69351563 25.51851562 -3.05078125 26.30078125 C-5.10065461 30.63005047 -6.89361998 33.76095293 -11.125 36.25 C-15.29143106 37.33689506 -18.87076502 37.25338045 -23 36 C-25.71601485 33.73665429 -26.23807933 33.27856774 -27 30 C-27.27716186 17.91574279 -27.27716186 17.91574279 -24 13 C-23.34 13.33 -22.68 13.66 -22 14 C-21.62109375 16.80078125 -21.62109375 16.80078125 -21.4375 20.3125 C-21.14790397 25.72580597 -21.14790397 25.72580597 -20 31 C-14.45188118 29.82635948 -12.1805625 28.66609468 -9 24 C-7.88123941 21.58194532 -6.8746279 19.23342033 -5.9375 16.75 C-5.68145996 16.0912085 -5.42541992 15.43241699 -5.16162109 14.75366211 C-3.28638661 9.88414011 -1.57149329 4.97639541 0 0 Z " fill="#EEEBEB" transform="translate(217,225)"/>
<path d="M0 0 C0.33 0 0.66 0 1 0 C1.62303989 19.22078062 2.07492556 40.77091252 -5 59 C-6.15603811 55.53188567 -6 52.63431887 -6 49 C-6.33 48.67 -6.66 48.34 -7 48 C-7.99 51.63 -8.98 55.26 -10 59 C-10.93383354 55.26466586 -11.03328593 54.08249386 -10.29296875 50.53515625 C-10.11926758 49.66197754 -9.94556641 48.78879883 -9.76660156 47.88916016 C-9.47994629 46.48996338 -9.47994629 46.48996338 -9.1875 45.0625 C-7.04857275 34.08255075 -5.86604525 23.14463493 -5 12 C-4.34 12 -3.68 12 -3 12 C-3 8.37 -3 4.74 -3 1 C-2.34 1.33 -1.68 1.66 -1 2 C-0.67 1.34 -0.34 0.68 0 0 Z " fill="#E4E3E2" transform="translate(224,178)"/>
<path d="M0 0 C0.99 0 1.98 0 3 0 C2.99476318 1.06436279 2.98952637 2.12872559 2.98413086 3.2253418 C2.9659895 7.18561966 2.95453463 11.14589386 2.94506836 15.10620117 C2.94004901 16.81812152 2.93323215 18.53003761 2.92456055 20.24194336 C2.91238979 22.70687922 2.90674762 25.17175825 2.90234375 27.63671875 C2.89718246 28.39836838 2.89202118 29.16001801 2.88670349 29.94474792 C2.88630362 33.75849825 3.07409039 37.29315771 4 41 C4.99 41 5.98 41 7 41 C7 41.66 7 42.32 7 43 C6.34 43 5.68 43 5 43 C4.67 44.32 4.34 45.64 4 47 C0.87969639 46.03162991 0.0138593 45.02309884 -1.6875 42.1875 C-3.81673933 36.74868215 -3.74841715 30.76905507 -4 25 C-4.99 25.99 -5.98 26.98 -7 28 C-7.66 27.34 -8.32 26.68 -9 26 C-8.90044711 21.91833153 -7.60895061 19.17084199 -5.5625 15.75 C-3.09291371 11.56522554 -2.09671337 7.74670267 -1.359375 2.96875 C-1 1 -1 1 0 0 Z " fill="#F1EEED" transform="translate(158,87)"/>
<path d="M0 0 C0.33 0 0.66 0 1 0 C1 1.98 1 3.96 1 6 C1.66 6 2.32 6 3 6 C3 6.66 3 7.32 3 8 C2.34 8 1.68 8 1 8 C0.34 10.97 -0.32 13.94 -1 17 C2.0109362 14.9927092 2.63016497 14.16115776 4 11 C4.07603428 17.90503897 4.12859318 24.80997007 4.16479492 31.71533203 C4.1798859 34.06465693 4.20036092 36.41395363 4.22631836 38.76318359 C4.2626872 42.13906815 4.27972338 45.51458037 4.29296875 48.890625 C4.30845261 49.94179504 4.32393646 50.99296509 4.33988953 52.07598877 C4.34011612 53.05670349 4.34034271 54.03741821 4.34057617 55.04785156 C4.34723801 55.90944885 4.35389984 56.77104614 4.36076355 57.65875244 C3.92536664 60.48434817 2.86085267 61.87264191 1 64 C1.16298584 63.36102783 1.32597168 62.72205566 1.49389648 62.0637207 C2.16289628 58.01389993 2.12321789 54.07758843 2.09765625 49.98046875 C2.09553383 48.69261223 2.09553383 48.69261223 2.09336853 47.3787384 C2.08779057 44.64828951 2.07524214 41.91792393 2.0625 39.1875 C2.05748215 37.3313814 2.05291974 35.4752615 2.04882812 33.61914062 C2.03782836 29.0793952 2.02057893 24.5397117 2 20 C1.67 20.66 1.34 21.32 1 22 C0.34 22 -0.32 22 -1 22 C-1 22.99 -1 23.98 -1 25 C-1.66 25 -2.32 25 -3 25 C-3.2475 25.5775 -3.495 26.155 -3.75 26.75 C-5.53195718 29.95752293 -7.7014109 32.35070545 -11 34 C-16.3401391 34.35017306 -19.66462219 34.46830225 -24 31 C-26.9754159 27.91831925 -27.52190761 25.20721299 -28 21 C-27.34 21 -26.68 21 -26 21 C-26 22.65 -26 24.3 -26 26 C-24.10820797 26.6814823 -24.10820797 26.6814823 -22 27 C-21.34 26.34 -20.68 25.68 -20 25 C-19.67 25.99 -19.34 26.98 -19 28 C-14.09757947 27.63982736 -14.09757947 27.63982736 -9.8125 25.4375 C-4.10927243 17.76764224 -2.23001165 9.10983484 0 0 Z " fill="#EEEBEC" transform="translate(218,96)"/>
<path d="M0 0 C0.66 0 1.32 0 2 0 C2.99 4.29 3.98 8.58 5 13 C5.66 13 6.32 13 7 13 C7.25394531 13.73605469 7.50789063 14.47210938 7.76953125 15.23046875 C8.11371094 16.20628906 8.45789062 17.18210937 8.8125 18.1875 C9.14894531 19.15042969 9.48539063 20.11335938 9.83203125 21.10546875 C10.97895417 23.94784295 12.42181762 26.38175474 14 29 C14 29.66 14 30.32 14 31 C13.34 31 12.68 31 12 31 C11.67 31.66 11.34 32.32 11 33 C10.01 30.69 9.02 28.38 8 26 C7.67 26.99 7.34 27.98 7 29 C6.34 27.35 5.68 25.7 5 24 C5 30.6 5 37.2 5 44 C4.67 44 4.34 44 4 44 C3.67 41.69 3.34 39.38 3 37 C2.34 39.31 1.68 41.62 1 44 C0.67 44 0.34 44 0 44 C0 38.39 0 32.78 0 27 C0.99 26.67 1.98 26.34 3 26 C2.67 25.01 2.34 24.02 2 23 C1.34 23 0.68 23 0 23 C-2.74626866 5.49253731 -2.74626866 5.49253731 0 0 Z " fill="#A20B10" transform="translate(30,10)"/>
<path d="M0 0 C1.9375 0.3125 1.9375 0.3125 4 1 C4.99432285 3.98296854 5.28722381 6.41901995 5.53515625 9.54296875 C5.62216797 10.61611328 5.70917969 11.68925781 5.79882812 12.79492188 C5.88583984 13.91447266 5.97285156 15.03402344 6.0625 16.1875 C6.15337891 17.31865234 6.24425781 18.44980469 6.33789062 19.61523438 C6.56193614 22.40990736 6.78250144 25.20481111 7 28 C9.31 28.99 11.62 29.98 14 31 C12.56756757 35.65540541 12.56756757 35.65540541 10.25 37.0625 C6.55441953 36.95984499 4.770506 35.35787744 2 33 C-2.15122349 26.70620955 -1.09225908 20.23115962 0 13 C0.33 12.34 0.66 11.68 1 11 C-0.32 10.67 -1.64 10.34 -3 10 C-2.39009109 6.44219804 -1.4216319 3.3171411 0 0 Z " fill="#F3F1F1" transform="translate(249,93)"/>
<path d="M0 0 C0.33 0 0.66 0 1 0 C2.20514375 9.33986409 2.09213655 18.60207216 2 28 C1.67 28 1.34 28 1 28 C-0.11365999 34.87337028 -0.08340388 41.61800688 -0.01831055 48.5703125 C0.12872057 65.06916375 -0.32628659 81.51552287 -1 98 C-1.33 98 -1.66 98 -2 98 C-2.20074861 86.69918591 -2.38440163 75.39823315 -2.54658794 64.09679604 C-2.62243748 58.84836965 -2.70404295 53.60016771 -2.79907227 48.35205078 C-2.89066515 43.28177124 -2.96678609 38.21146831 -3.03244972 33.14078903 C-3.06009535 31.21195266 -3.09319634 29.28318606 -3.13199425 27.35454178 C-3.51568034 7.94103691 -3.51568034 7.94103691 0 0 Z " fill="#BB1C20" transform="translate(33,44)"/>
<path d="M0 0 C1.22099581 3.66298743 1.01998953 6.93020698 0.87890625 10.73046875 C0.85529526 11.48088943 0.83168427 12.23131012 0.80735779 13.00447083 C0.73084327 15.39901219 0.64676674 17.79322013 0.5625 20.1875 C0.50926706 21.8118327 0.45652674 23.43618162 0.40429688 25.06054688 C0.27524473 29.04057534 0.13941046 33.02032144 0 37 C-0.33 37 -0.66 37 -1 37 C-1.04898438 36.36191406 -1.09796875 35.72382813 -1.1484375 35.06640625 C-1.22320312 34.24011719 -1.29796875 33.41382813 -1.375 32.5625 C-1.44460937 31.73878906 -1.51421875 30.91507813 -1.5859375 30.06640625 C-1.72257813 29.38449219 -1.85921875 28.70257813 -2 28 C-2.66 27.67 -3.32 27.34 -4 27 C-4.33 30.3 -4.66 33.6 -5 37 C-7 35 -7 35 -7.16015625 33.125 C-7.12792969 32.42375 -7.09570312 31.7225 -7.0625 31 C-6.90401197 27.88158436 -6.90401197 27.88158436 -8 25 C-8.66 25.66 -9.32 26.32 -10 27 C-9.855625 26.29875 -9.71125 25.5975 -9.5625 24.875 C-8.98521625 21.92443859 -8.48304859 18.96729849 -8 16 C-8.66 16 -9.32 16 -10 16 C-9.25 9.25 -9.25 9.25 -7 7 C-6.01 7.66 -5.02 8.32 -4 9 C-3.67 8.67 -3.34 8.34 -3 8 C-2.67 8 -2.34 8 -2 8 C-1.34 5.36 -0.68 2.72 0 0 Z " fill="#EFECEA" transform="translate(226,153)"/>
<path d="M0 0 C1.65 0.33 3.3 0.66 5 1 C5.33 8.59 5.66 16.18 6 24 C4.35 24.33 2.7 24.66 1 25 C0.67 24.67 0.34 24.34 0 24 C-0.99 26.475 -0.99 26.475 -2 29 C-2.99 29 -3.98 29 -5 29 C-4.67 26.36 -4.34 23.72 -4 21 C-3.34 21 -2.68 21 -2 21 C-2 20.34 -2 19.68 -2 19 C-1.34 19 -0.68 19 0 19 C0 18.34 0 17.68 0 17 C-0.66 17 -1.32 17 -2 17 C-2.3690205 5.47835991 -2.3690205 5.47835991 0 0 Z " fill="#F6F4F2" transform="translate(221,85)"/>
<path d="M0 0 C1.32 0.66 2.64 1.32 4 2 C2.42848622 13.94350474 -2.40972441 25.40789888 -8 36 C-9.32 35.67 -10.64 35.34 -12 35 C-12 34.01 -12 33.02 -12 32 C-11.01 32 -10.02 32 -9 32 C-9.020625 31.28199219 -9.04125 30.56398437 -9.0625 29.82421875 C-8.84279298 18.79767244 -4.6052736 9.85681903 0 0 Z " fill="#E7E5E4" transform="translate(215,167)"/>
<path d="M0 0 C1.25488651 2.50977303 1.04853067 4.03974219 0.92993164 6.84277344 C0.88982468 7.86596176 0.84971771 8.88915009 0.80839539 9.94334412 C0.75947647 11.07063431 0.71055756 12.1979245 0.66015625 13.359375 C0.56500029 15.81483715 0.47046602 18.27032345 0.37646484 20.72583008 C0.32496277 22.03323151 0.27346069 23.34063293 0.22039795 24.68765259 C-0.73380992 49.06743872 -1.19127705 73.41410909 -1.125 97.8125 C-1.12322124 98.50180099 -1.12144249 99.19110199 -1.11960983 99.90129089 C-1.09695418 108.26762995 -1.05794011 116.63382856 -1 125 C-1.33 125 -1.66 125 -2 125 C-2.870506 111.28011163 -3.16066075 97.62063788 -3.125 83.875 C-3.12411377 82.87886688 -3.12322754 81.88273376 -3.12231445 80.85641479 C-3.10752462 66.58892339 -2.86695771 52.34552662 -2.3581543 38.08764648 C-1.95600283 26.72088967 -1.89671857 15.37243281 -2 4 C-4.47266765 4.34444881 -4.47266765 4.34444881 -7 5 C-7.33 5.66 -7.66 6.32 -8 7 C-8.66 6.67 -9.32 6.34 -10 6 C-7.82304683 0.97626191 -5.41372848 -0.29263397 0 0 Z " fill="#81131A" transform="translate(116,21)"/>
<path d="M0 0 C1.65 0.33 3.3 0.66 5 1 C5.20638953 25.77626887 5.20638953 25.77626887 4 37 C3.34 36.01 2.68 35.02 2 34 C2.061875 34.94875 2.12375 35.8975 2.1875 36.875 C2.125625 37.90625 2.06375 38.9375 2 40 C1.01 40.66 0.02 41.32 -1 42 C-0.01 30.78 0.98 19.56 2 8 C0.68 8.33 -0.64 8.66 -2 9 C-2.6875 7.3125 -2.6875 7.3125 -3 5 C-1.5625 2.25 -1.5625 2.25 0 0 Z " fill="#BA161F" transform="translate(110,24)"/>
<path d="M0 0 C1.875 0 1.875 0 4 1 C7.18088834 6.62772553 8.02668378 12.6677192 9 19 C8.34 19 7.68 19 7 19 C6.49487756 17.39743892 5.99608373 15.79288208 5.5 14.1875 C5.08234375 12.84751953 5.08234375 12.84751953 4.65625 11.48046875 C4 9 4 9 4 6 C3.34 6 2.68 6 2 6 C2 13.59 2 21.18 2 29 C2.66 29 3.32 29 4 29 C4 27.35 4 25.7 4 24 C4.33 24 4.66 24 5 24 C5 26.64 5 29.28 5 32 C4.01 32.495 4.01 32.495 3 33 C2.53101037 35.8159849 2.53101037 35.8159849 2.375 39.0625 C2.26285156 40.71958984 2.26285156 40.71958984 2.1484375 42.41015625 C2.09945313 43.26480469 2.05046875 44.11945312 2 45 C1.67 45 1.34 45 1 45 C0.93941406 43.94039062 0.87882812 42.88078125 0.81640625 41.7890625 C0.73199873 40.40102779 0.64735083 39.01300768 0.5625 37.625 C0.50352539 36.57699219 0.50352539 36.57699219 0.44335938 35.5078125 C0.25719866 31.62639508 0.25719866 31.62639508 -1 28 C-1.09719073 25.97971648 -1.13076517 23.95621269 -1.1328125 21.93359375 C-1.13410156 20.72638672 -1.13539062 19.51917969 -1.13671875 18.27539062 C-1.13091797 16.37563477 -1.13091797 16.37563477 -1.125 14.4375 C-1.12886719 13.16712891 -1.13273437 11.89675781 -1.13671875 10.58789062 C-1.13542969 9.38197266 -1.13414063 8.17605469 -1.1328125 6.93359375 C-1.13168457 5.82040771 -1.13055664 4.70722168 -1.12939453 3.56030273 C-1 1 -1 1 0 0 Z " fill="#982129" transform="translate(28,4)"/>
<path d="M0 0 C0.99 0.66 1.98 1.32 3 2 C2.42100485 7.92680486 -0.95452807 10.43259286 -5.2890625 14.15234375 C-7.90041703 15.93212861 -9.32574541 16.69569816 -12.4375 16.875 C-16 16 -16 16 -18 13.5 C-18.33 12.675 -18.66 11.85 -19 11 C-17.3125 9.875 -17.3125 9.875 -15 9 C-12.25 9.875 -12.25 9.875 -10 11 C-10 10.34 -10 9.68 -10 9 C-8.3203125 7.34375 -8.3203125 7.34375 -6.125 5.5 C-4.00964496 3.71066742 -1.95980876 1.95980876 0 0 Z " fill="#EFEDED" transform="translate(338,95)"/>
<path d="M0 0 C2.0016972 3.34024343 2.25716015 5.89234513 2.2746582 9.7590332 C2.28419022 10.9173616 2.29372223 12.07569 2.30354309 13.26911926 C2.30263168 14.51706772 2.30172028 15.76501617 2.30078125 17.05078125 C2.30506638 18.3380864 2.3093515 19.62539154 2.31376648 20.95170593 C2.32122096 23.6760978 2.32094391 26.40036009 2.31567383 29.12475586 C2.30989209 32.60150992 2.32678178 36.07772901 2.3500185 39.55439472 C2.3683745 42.88654506 2.36456876 46.21858073 2.36328125 49.55078125 C2.372491 50.79265701 2.38170074 52.03453278 2.39118958 53.31404114 C2.35780328 59.5733646 2.28802983 64.5680908 -1 70 C-3.6875 70.9375 -3.6875 70.9375 -6 71 C-6.495 68.525 -6.495 68.525 -7 66 C-6.34 66 -5.68 66 -5 66 C-5 66.66 -5 67.32 -5 68 C-2.2027092 65.93243723 -1.97307727 64.85559629 -1.3125 61.3125 C-1.1578125 59.6728125 -1.1578125 59.6728125 -1 58 C-0.34 58 0.32 58 1 58 C0.96970703 56.95360352 0.93941406 55.90720703 0.90820312 54.82910156 C-0.191407 16.54607145 -0.191407 16.54607145 0 0 Z " fill="#A31D27" transform="translate(34,100)"/>
<path d="M0 0 C0.66 0 1.32 0 2 0 C2.474375 0.804375 2.94875 1.60875 3.4375 2.4375 C4.79983672 5.2918076 4.79983672 5.2918076 8 6 C8.73046875 7.84765625 8.73046875 7.84765625 9.1875 10.0625 C9.34605469 10.79597656 9.50460937 11.52945313 9.66796875 12.28515625 C9.77753906 12.85105469 9.88710938 13.41695312 10 14 C9.01 14 8.02 14 7 14 C6.34 14.66 5.68 15.32 5 16 C4.34 15.34 3.68 14.68 3 14 C2.34 16.64 1.68 19.28 1 22 C-0.65 22 -2.3 22 -4 22 C-4.25 16.375 -4.25 16.375 -2 13 C-1.34 13 -0.68 13 0 13 C0 12.34 0 11.68 0 11 C0.66 11 1.32 11 2 11 C2 10.34 2 9.68 2 9 C1.34 9 0.68 9 0 9 C0 6.03 0 3.06 0 0 Z " fill="#F7F5F4" transform="translate(295,95)"/>
<path d="M0 0 C0.33 0 0.66 0 1 0 C1 2.31 1 4.62 1 7 C0.34 6.34 -0.32 5.68 -1 5 C-1.53109375 5.68707031 -2.0621875 6.37414062 -2.609375 7.08203125 C-3.31578125 7.98308594 -4.0221875 8.88414063 -4.75 9.8125 C-5.44609375 10.70582031 -6.1421875 11.59914063 -6.859375 12.51953125 C-8.79157634 14.75848718 -10.50898328 16.42479825 -13 18 C-13.66 18 -14.32 18 -15 18 C-15 16.68 -15 15.36 -15 14 C-16.32 13.67 -17.64 13.34 -19 13 C-19.33 11.35 -19.66 9.7 -20 8 C-19.34 9.32 -18.68 10.64 -18 12 C-12.06107964 9.73755415 -9.41662234 6.10070214 -6 1 C-4.66666667 1.66666667 -3.33333333 2.33333333 -2 3 C-1.34 2.01 -0.68 1.02 0 0 Z " fill="#DAD7D7" transform="translate(154,111)"/>
<path d="M0 0 C0.99 0.66 1.98 1.32 3 2 C3.2487793 3.87939453 3.2487793 3.87939453 3.07421875 6.1328125 C2.99204102 7.34130859 2.99204102 7.34130859 2.90820312 8.57421875 C2.83537109 9.41597656 2.76253906 10.25773437 2.6875 11.125 C2.62626953 11.97449219 2.56503906 12.82398437 2.50195312 13.69921875 C2.34848609 15.80053665 2.17602278 17.90045124 2 20 C0.35 20.33 -1.3 20.66 -3 21 C-3 19.35 -3 17.7 -3 16 C-3.99 16.33 -4.98 16.66 -6 17 C-6.9199404 9.9471236 -3.8742174 5.73061323 0 0 Z " fill="#FBFAFA" transform="translate(275,102)"/>
<path d="M0 0 C0.33 0 0.66 0 1 0 C1.13277344 0.71027344 1.26554687 1.42054688 1.40234375 2.15234375 C1.57894531 3.07144531 1.75554687 3.99054688 1.9375 4.9375 C2.11152344 5.85402344 2.28554687 6.77054688 2.46484375 7.71484375 C2.77714988 9.95289844 2.77714988 9.95289844 4 11 C4.04092937 13.33297433 4.04241723 15.66705225 4 18 C4.99 17.67 5.98 17.34 7 17 C6.75443359 16.18789062 6.75443359 16.18789062 6.50390625 15.359375 C5.91409413 12.59777407 5.90390692 10.07181861 5.9375 7.25 C5.94652344 6.26515625 5.95554687 5.2803125 5.96484375 4.265625 C5.97644531 3.51796875 5.98804687 2.7703125 6 2 C6.33 2 6.66 2 7 2 C7.13277344 2.74765625 7.26554687 3.4953125 7.40234375 4.265625 C7.57894531 5.25046875 7.75554687 6.2353125 7.9375 7.25 C8.11152344 8.22453125 8.28554687 9.1990625 8.46484375 10.203125 C9.08789448 13.63918888 9.08789448 13.63918888 10 17 C11.9837767 18.28436734 11.9837767 18.28436734 14 19 C14.042721 20.66611905 14.04063832 22.33382885 14 24 C13 25 13 25 10.75 25.4375 C7.43714577 24.91045501 6.12817066 23.69251953 4.13671875 21.03515625 C0.49944115 14.52305444 -0.41519898 7.3351819 0 0 Z " fill="#94252E" transform="translate(109,144)"/>
<path d="M0 0 C2.14651068 1.73901801 2.93217485 2.65698264 3.4765625 5.41015625 C3.52554688 6.28542969 3.57453125 7.16070312 3.625 8.0625 C3.7917857 11.66869449 3.7917857 11.66869449 5 15 C6.65 14.67 8.3 14.34 10 14 C9.49396008 16.16874252 9.00016187 17.99967627 8 20 C4.33422184 20.4165657 2.60736483 20.46351526 -0.375 18.1875 C-2.75758003 13.51397764 -2.32458822 9.14832988 -2 4 C-1.34 4 -0.68 4 0 4 C0 2.68 0 1.36 0 0 Z " fill="#F2F0F1" transform="translate(131,109)"/>
<path d="M0 0 C0.66 0 1.32 0 2 0 C6.14911629 9.85415118 4.79881086 16.85431063 2 27 C0.84396189 23.53188567 1 20.63431887 1 17 C0.67 16.67 0.34 16.34 0 16 C-1.485 21.445 -1.485 21.445 -3 27 C-3.98123894 23.07504423 -3.92887176 21.43020962 -3.22265625 17.578125 C-3.03896484 16.55332031 -2.85527344 15.52851563 -2.66601562 14.47265625 C-2.46685547 13.40917969 -2.26769531 12.34570312 -2.0625 11.25 C-1.86720703 10.17105469 -1.67191406 9.09210938 -1.47070312 7.98046875 C-0.98784723 5.31887282 -0.49735831 2.65891745 0 0 Z " fill="#E2DFDF" transform="translate(217,210)"/>
<path d="M0 0 C0.33 0 0.66 0 1 0 C1 5.61 1 11.22 1 17 C1.66 17.33 2.32 17.66 3 18 C3 19.98 3 21.96 3 24 C1.68 24.33 0.36 24.66 -1 25 C-2.75623315 19.62421315 -3.39316874 14.69889745 -3.625 9.0625 C-3.66367188 8.28326172 -3.70234375 7.50402344 -3.7421875 6.70117188 C-3.83544127 4.80112621 -3.91875962 2.90059722 -4 1 C-3.01 1 -2.02 1 -1 1 C-0.67 2.65 -0.34 4.3 0 6 C0 4.02 0 2.04 0 0 Z " fill="#FCFBFA" transform="translate(194,99)"/>
<path d="M0 0 C1.2380014 3.57644848 0.74926071 6.33694766 0 10 C0.66 10 1.32 10 2 10 C2.19335938 9.36191406 2.38671875 8.72382812 2.5859375 8.06640625 C2.97652344 6.82697266 2.97652344 6.82697266 3.375 5.5625 C3.63023437 4.73878906 3.88546875 3.91507812 4.1484375 3.06640625 C5 1 5 1 7 0 C6.01 5.61 5.02 11.22 4 17 C3.34 17 2.68 17 2 17 C1.67 17.99 1.34 18.98 1 20 C0.34 20 -0.32 20 -1 20 C-1 21.65 -1 23.3 -1 25 C-4.45519865 19.81720202 -3.494503 13.258174 -2.58203125 7.24609375 C-1.31607143 1.31607143 -1.31607143 1.31607143 0 0 Z " fill="#DBD8DA" transform="translate(130,93)"/>
<path d="M0 0 C1.875 0.25 1.875 0.25 4 1 C5.25 3.0625 5.25 3.0625 6 5 C6.66 5 7.32 5 8 5 C9.63676257 3.0399719 9.63676257 3.0399719 11 1 C10.88512252 2.58409994 10.75765492 4.16728963 10.625 5.75 C10.55539062 6.63171875 10.48578125 7.5134375 10.4140625 8.421875 C10.00149945 10.99066382 9.28839043 12.75841015 8 15 C7 14 7 14 6.9375 11.4375 C6.958125 10.633125 6.97875 9.82875 7 9 C6.38125 8.938125 5.7625 8.87625 5.125 8.8125 C3 8 3 8 1.75 5.4375 C1.37875 4.2309375 1.37875 4.2309375 1 3 C0.34 3 -0.32 3 -1 3 C-0.814375 4.11375 -0.62875 5.2275 -0.4375 6.375 C0 10 0 10 -1 12 C-0.34 12 0.32 12 1 12 C1 12.66 1 13.32 1 14 C0.34 14 -0.32 14 -1 14 C-1 14.66 -1 15.32 -1 16 C-1.66 16 -2.32 16 -3 16 C-2.67 11.38 -2.34 6.76 -2 2 C-1.34 2 -0.68 2 0 2 C0 1.34 0 0.68 0 0 Z " fill="#F1EFEF" transform="translate(296,92)"/>
<path d="M0 0 C0.99 0 1.98 0 3 0 C3.08165496 2.20770805 3.13948488 4.41630425 3.1875 6.625 C3.22230469 7.85476562 3.25710937 9.08453125 3.29296875 10.3515625 C2.97585537 14.30068108 2.09258807 16.6599075 0 20 C-2.1875 20.875 -2.1875 20.875 -4 21 C-3.34 19.35 -2.68 17.7 -2 16 C-2.66 16 -3.32 16 -4 16 C-3.855625 15.28328125 -3.71125 14.5665625 -3.5625 13.828125 C-3.20024712 12.006798 -2.84548304 10.18395733 -2.5 8.359375 C-2.335 7.49828125 -2.17 6.6371875 -2 5.75 C-1.835 4.87859375 -1.67 4.0071875 -1.5 3.109375 C-1 1 -1 1 0 0 Z " fill="#FCFAFB" transform="translate(158,87)"/>
<path d="M0 0 C0.99 0.33 1.98 0.66 3 1 C2.64989059 11.15317287 2.64989059 11.15317287 -0.0625 14.6875 C-0.701875 15.120625 -1.34125 15.55375 -2 16 C-2.99 15.67 -3.98 15.34 -5 15 C-4.18081069 5.10505541 -4.18081069 5.10505541 -2 1 C-1.34 0.67 -0.68 0.34 0 0 Z " fill="#E6E3E2" transform="translate(199,212)"/>
<path d="M0 0 C1.299375 0.680625 1.299375 0.680625 2.625 1.375 C5.71476907 2.86266659 8.72930848 3.9876431 12 5 C10.56756757 9.65540541 10.56756757 9.65540541 8.25 11.0625 C4.62334854 10.96175968 2.74037435 9.26378751 0 7 C-1.375 4.25 -1.375 4.25 -2 2 C-1.34 2 -0.68 2 0 2 C0 1.34 0 0.68 0 0 Z " fill="#F9F7F8" transform="translate(251,119)"/>
<path d="M0 0 C1.485 0.99 1.485 0.99 3 2 C3.1875 5.125 3.1875 5.125 3 8 C3.99 8 4.98 8 6 8 C6.06058594 8.74765625 6.12117188 9.4953125 6.18359375 10.265625 C6.26738281 11.25046875 6.35117188 12.2353125 6.4375 13.25 C6.51871094 14.22453125 6.59992188 15.1990625 6.68359375 16.203125 C6.95074584 18.56461753 7.35371968 20.71901065 8 23 C6.68 23.33 5.36 23.66 4 24 C3.87625 22.948125 3.7525 21.89625 3.625 20.8125 C3.18398559 17.17314304 3.18398559 17.17314304 2 14.65625 C0.84992768 11.60137039 0.5893647 8.938698 0.375 5.6875 C0.26285156 4.08455078 0.26285156 4.08455078 0.1484375 2.44921875 C0.09945312 1.64097656 0.05046875 0.83273438 0 0 Z " fill="#BD171E" transform="translate(109,138)"/>
<path d="M0 0 C0.33 0 0.66 0 1 0 C1.16811728 2.74991832 1.3345481 5.49992112 1.5 8.25 C1.54769531 9.02730469 1.59539062 9.80460937 1.64453125 10.60546875 C1.68964844 11.35957031 1.73476562 12.11367187 1.78125 12.890625 C1.82314453 13.58188477 1.86503906 14.27314453 1.90820312 14.98535156 C2.10557035 19.3169323 2 23.6642106 2 28 C2.66 28 3.32 28 4 28 C4.33 27.34 4.66 26.68 5 26 C4.46930939 29.82097239 3.50298434 32.06171403 1 35 C-0.5625 33.25 -0.5625 33.25 -2 31 C-1.70028996 29.65870854 -1.35897983 28.32665835 -1 27 C-0.85321886 24.90352557 -0.75294862 22.80358677 -0.68359375 20.703125 C-0.64169922 19.49785156 -0.59980469 18.29257813 -0.55664062 17.05078125 C-0.51732422 15.79652344 -0.47800781 14.54226562 -0.4375 13.25 C-0.39431641 11.98027344 -0.35113281 10.71054688 -0.30664062 9.40234375 C-0.20060278 6.26833635 -0.09853942 3.13425067 0 0 Z " fill="#CECACA" transform="translate(226,118)"/>
<path d="M0 0 C0.66 0.66 1.32 1.32 2 2 C3.32 1.34 4.64 0.68 6 0 C6.61875 1.6396875 6.61875 1.6396875 7.25 3.3125 C8.60285591 6.51015942 9.94055844 8.20653426 13 10 C12.05125 9.79375 11.1025 9.5875 10.125 9.375 C9.09375 9.25125 8.0625 9.1275 7 9 C6.34 9.66 5.68 10.32 5 11 C5.99 12.485 5.99 12.485 7 14 C5.1875 13.4375 5.1875 13.4375 3 12 C1.24237993 8.48475986 -0.39823569 4.91146801 -1 1 C-0.67 0.67 -0.34 0.34 0 0 Z " fill="#E1E0E1" transform="translate(315,96)"/>
<path d="M0 0 C0.33 0 0.66 0 1 0 C1.33 8.58 1.66 17.16 2 26 C1.01 26.33 0.02 26.66 -1 27 C-1.33 27.99 -1.66 28.98 -2 30 C-3.42258812 26.17679443 -4.24042276 23.08718695 -4 19 C-3.34 19 -2.68 19 -2 19 C-0.3501993 15.70039859 -0.61741639 12.00872116 -0.4375 8.375 C-0.39431641 7.57320313 -0.35113281 6.77140625 -0.30664062 5.9453125 C-0.20048543 3.9637489 -0.09973145 1.98189729 0 0 Z " fill="#E5E2E3" transform="translate(277,104)"/>
<path d="M0 0 C1.67542976 0.28604898 3.34385343 0.61781233 5 1 C6.59138085 5.17737474 7.21278058 8.53160785 7 13 C5.02 13.99 5.02 13.99 3 15 C3 14.01 3 13.02 3 12 C2.34 11.67 1.68 11.34 1 11 C1.04125 10.0925 1.0825 9.185 1.125 8.25 C1.00468444 5.1217954 0.6085292 3.61385994 -1 1 C-0.67 0.67 -0.34 0.34 0 0 Z " fill="#F2F0EF" transform="translate(313,84)"/>
<path d="M0 0 C1.32 0.66 2.64 1.32 4 2 C3.43174347 7.54050113 1.37113483 12.03715966 -1 17 C-1.33 16.01 -1.66 15.02 -2 14 C-2.66 14 -3.32 14 -4 14 C-3.46148032 8.72250715 -2.22656164 4.74354436 0 0 Z " fill="#EDE9E9" transform="translate(215,167)"/>
<path d="M0 0 C0.33 0 0.66 0 1 0 C1.07603428 6.90503897 1.12859318 13.80997007 1.16479492 20.71533203 C1.1798859 23.06465693 1.20036092 25.41395363 1.22631836 27.76318359 C1.2626872 31.13906815 1.27972338 34.51458037 1.29296875 37.890625 C1.30845261 38.94179504 1.32393646 39.99296509 1.33988953 41.07598877 C1.34022942 42.54706085 1.34022942 42.54706085 1.34057617 44.04785156 C1.34723801 44.90944885 1.35389984 45.77104614 1.36076355 46.65875244 C0.92536664 49.48434817 -0.13914733 50.87264191 -2 53 C-1.83701416 52.36102783 -1.67402832 51.72205566 -1.50610352 51.0637207 C-0.83710372 47.01389993 -0.87678211 43.07758843 -0.90234375 38.98046875 C-0.9037587 38.12189774 -0.90517365 37.26332672 -0.90663147 36.3787384 C-0.91220943 33.64828951 -0.92475786 30.91792393 -0.9375 28.1875 C-0.94251785 26.3313814 -0.94708026 24.4752615 -0.95117188 22.61914062 C-0.96217164 18.0793952 -0.97942107 13.5397117 -1 9 C-1.66 9 -2.32 9 -3 9 C-2.5359375 7.88625 -2.5359375 7.88625 -2.0625 6.75 C-1.1905075 4.49307824 -0.52332993 2.3549847 0 0 Z " fill="#BAB9BA" transform="translate(221,107)"/>
<path d="M0 0 C3.96189783 4.23513217 5.43181728 8.547001 7 14 C6.01 14.495 6.01 14.495 5 15 C5.33 16.32 5.66 17.64 6 19 C7.175625 19.2165625 7.175625 19.2165625 8.375 19.4375 C11 20 11 20 13 21 C12 22 12 22 9.3125 22.5625 C5.39721771 21.89764074 4.9525188 21.18228716 2.625 18.125 C0 14.36923077 0 14.36923077 0 12 C0.66 11.67 1.32 11.34 2 11 C1.25640327 5.44946714 1.25640327 5.44946714 0 0 Z " fill="#8F1216" transform="translate(63,86)"/>
<path d="M0 0 C-0.54705132 4.5952311 -1.83476952 7.92936669 -4 12 C-4.495 13.3921875 -4.495 13.3921875 -5 14.8125 C-5.33 15.534375 -5.66 16.25625 -6 17 C-6.99 17.33 -7.98 17.66 -9 18 C-8.61405073 11.1460733 -8.03377903 6.51918368 -3.4375 1.1875 C-2 0 -2 0 0 0 Z " fill="#FBF8F9" transform="translate(138,87)"/>
<path d="M0 0 C1.65 0.33 3.3 0.66 5 1 C5.33 6.28 5.66 11.56 6 17 C5.34 17 4.68 17 4 17 C3.896875 15.88625 3.79375 14.7725 3.6875 13.625 C3.460625 12.42875 3.23375 11.2325 3 10 C2.01 9.34 1.02 8.68 0 8 C-0.66 8.99 -1.32 9.98 -2 11 C-1.85957123 9.35369672 -1.71250671 7.70795821 -1.5625 6.0625 C-1.48128906 5.14597656 -1.40007812 4.22945313 -1.31640625 3.28515625 C-1 1 -1 1 0 0 Z " fill="#E6E3E4" transform="translate(221,85)"/>
<path d="M0 0 C0.66 0 1.32 0 2 0 C4.37590142 3.70416126 4.20500286 6.92984573 4.125 11.25 C4.10695313 12.51328125 4.08890625 13.7765625 4.0703125 15.078125 C4.04710937 16.04234375 4.02390625 17.0065625 4 18 C3.67 18 3.34 18 3 18 C2.67 15.69 2.34 13.38 2 11 C1.01 14.465 1.01 14.465 0 18 C-0.33 18 -0.66 18 -1 18 C-1.02684312 15.18743719 -1.04676188 12.37512759 -1.0625 9.5625 C-1.07087891 8.76005859 -1.07925781 7.95761719 -1.08789062 7.13085938 C-1.0965143 5.08704779 -1.0522815 3.04316098 -1 1 C-0.67 0.67 -0.34 0.34 0 0 Z " fill="#A51519" transform="translate(31,36)"/>
<path d="M0 0 C0.33 0 0.66 0 1 0 C1.02712153 1.916588 1.04645097 3.8332873 1.0625 5.75 C1.07410156 6.81734375 1.08570313 7.8846875 1.09765625 8.984375 C1.01442966 11.55441217 0.889331 13.5988063 0 16 C-2.0625 17.25 -2.0625 17.25 -4 18 C-4.33 16.02 -4.66 14.04 -5 12 C-4.34 12 -3.68 12 -3 12 C-3 8.37 -3 4.74 -3 1 C-2.34 1.33 -1.68 1.66 -1 2 C-0.67 1.34 -0.34 0.68 0 0 Z " fill="#FBFAF8" transform="translate(224,178)"/>
<path d="M0 0 C0.33 0 0.66 0 1 0 C1 1.98 1 3.96 1 6 C1.66 6 2.32 6 3 6 C3 6.66 3 7.32 3 8 C2.34 8 1.68 8 1 8 C0.60777895 9.41199578 0.23688941 10.82992764 -0.125 12.25 C-0.33382812 13.03890625 -0.54265625 13.8278125 -0.7578125 14.640625 C-1.04314411 17.4203071 -0.44977894 18.65887549 1 21 C-1.6739124 21.89130413 -4.23723823 22.47731534 -7 23 C-6.71253906 22.14664063 -6.42507812 21.29328125 -6.12890625 20.4140625 C-5.0259754 17.07855537 -3.97147561 13.73247214 -2.9375 10.375 C-2.42509766 8.71597656 -2.42509766 8.71597656 -1.90234375 7.0234375 C-1.20584036 4.68969885 -0.56046714 2.36898481 0 0 Z " fill="#EAE8E9" transform="translate(218,96)"/>
<path d="M0 0 C0.66 0.33 1.32 0.66 2 1 C1.71937057 3.48088355 1.42609401 5.95909185 1.125 8.4375 C1.04636719 9.14455078 0.96773437 9.85160156 0.88671875 10.58007812 C0.66072324 12.39673432 0.33699273 14.20062522 0 16 C-0.66 16.33 -1.32 16.66 -2 17 C-3.25664978 14.09399739 -4 12.20395416 -4 9 C-4.66 8.67 -5.32 8.34 -6 8 C-5.34 8 -4.68 8 -4 8 C-3.8453125 7.13375 -3.8453125 7.13375 -3.6875 6.25 C-2.90207202 3.67950842 -1.69495803 2.06342716 0 0 Z " fill="#F0EDEC" transform="translate(223,201)"/>
<path d="M0 0 C1.32 0 2.64 0 4 0 C4.18175781 0.59167969 4.36351562 1.18335937 4.55078125 1.79296875 C5.96570989 6.24092391 7.47980358 10.03969135 10 14 C10 14.66 10 15.32 10 16 C9.34 16 8.68 16 8 16 C7.67 16.66 7.34 17.32 7 18 C6.49596232 16.70990357 5.99690074 15.41786211 5.5 14.125 C5.2215625 13.40570313 4.943125 12.68640625 4.65625 11.9453125 C4 10 4 10 4 8 C3.34 8 2.68 8 2 8 C0.74335022 5.09399739 0 3.20395416 0 0 Z " fill="#B31315" transform="translate(34,25)"/>
<path d="M0 0 C1.09658936 3.28976808 0.79953138 4.71303767 0 8 C0.99 8.33 1.98 8.66 3 9 C2.67 12.96 2.34 16.92 2 21 C0 17 0 17 0 13 C-1.98 13.99 -3.96 14.98 -6 16 C-4.25192871 10.53262809 -2.34205919 5.24175152 0 0 Z " fill="#D5D2D1" transform="translate(247,95)"/>
<path d="M0 0 C0.33 0.66 0.66 1.32 1 2 C0.09239638 4.59732225 -0.87067892 7.09450975 -1.9375 9.625 C-2.22818359 10.33140625 -2.51886719 11.0378125 -2.81835938 11.765625 C-3.53867488 13.51327573 -4.26845694 15.25701915 -5 17 C-5.33 17 -5.66 17 -6 17 C-6 15.02 -6 13.04 -6 11 C-7.32 11.33 -8.64 11.66 -10 12 C-9.25 7.25 -9.25 7.25 -7 5 C-6.34 5.66 -5.68 6.32 -5 7 C-4.731875 6.401875 -4.46375 5.80375 -4.1875 5.1875 C-3.01506533 3.02775192 -1.80630718 1.64209744 0 0 Z " fill="#981515" transform="translate(98,56)"/>
<path d="M0 0 C2.65776679 0.65088166 4.70767067 1.39144462 7.0625 2.75 C6.4025 4.07 5.7425 5.39 5.0625 6.75 C-0.31055699 7.19041451 -0.31055699 7.19041451 -2.9375 6.75 C-4.9375 4.25 -4.9375 4.25 -5.9375 1.75 C-2.9375 -0.25 -2.9375 -0.25 0 0 Z " fill="#F6F3F4" transform="translate(324.9375,104.25)"/>
<path d="M0 0 C1.32 0.33 2.64 0.66 4 1 C4.05423638 2.91635217 4.09289963 4.83314925 4.125 6.75 C4.14820313 7.81734375 4.17140625 8.8846875 4.1953125 9.984375 C4 13 4 13 2 17 C2 13.37 2 9.74 2 6 C1.34 5.67 0.68 5.34 0 5 C-0.66 8.3 -1.32 11.6 -2 15 C-2.33 15 -2.66 15 -3 15 C-3.66 12.69 -4.32 10.38 -5 8 C-4.34 7.67 -3.68 7.34 -3 7 C-3 6.34 -3 5.68 -3 5 C-3.66 4.34 -4.32 3.68 -5 3 C-3.68 3 -2.36 3 -1 3 C-0.67 2.01 -0.34 1.02 0 0 Z " fill="#E4E3E3" transform="translate(158,83)"/>
<path d="M0 0 C1.90608098 3.21182149 2.22266247 5.53882603 2.125 9.25 C2.10695312 10.14203125 2.08890625 11.0340625 2.0703125 11.953125 C2.03550781 12.96632812 2.03550781 12.96632812 2 14 C0.02 14.66 -1.96 15.32 -4 16 C-3.39891424 10.34979382 -1.92471317 5.33835539 0 0 Z " fill="#FDFBFC" transform="translate(217,225)"/>
<path d="M0 0 C0.66 0 1.32 0 2 0 C2.02724423 2.83339965 2.04695589 5.66653117 2.0625 8.5 C2.07087891 9.29148437 2.07925781 10.08296875 2.08789062 10.8984375 C2.10891185 16.02761717 1.73937287 20.92336106 1 26 C0.34 26 -0.32 26 -1 26 C-1.16311941 17.28217363 -0.65655389 8.68761489 0 0 Z " fill="#991C24" transform="translate(109,38)"/>
<path d="M0 0 C0.66 0 1.32 0 2 0 C1.67 7.92 1.34 15.84 1 24 C-1 22 -1 22 -1.16015625 20.125 C-1.12792969 19.42375 -1.09570312 18.7225 -1.0625 18 C-0.90401197 14.88158436 -0.90401197 14.88158436 -2 12 C-2.66 12.66 -3.32 13.32 -4 14 C-3.21824485 9.15311808 -1.60155722 4.6233633 0 0 Z " fill="#B2A8A8" transform="translate(220,166)"/>
<path d="M0 0 C0.33 0 0.66 0 1 0 C1.33 1.65 1.66 3.3 2 5 C3.65 5.33 5.3 5.66 7 6 C7 6.99 7 7.98 7 9 C7.99 9 8.98 9 10 9 C10 9.66 10 10.32 10 11 C9.34 11 8.68 11 8 11 C7.67 12.32 7.34 13.64 7 15 C3.61571159 13.9497036 2.97132891 12.94675369 1.25 9.75 C0.06488343 6.19465028 -0.27096425 3.70317814 0 0 Z " fill="#E4E1E1" transform="translate(155,119)"/>
<path d="M0 0 C1.1700097 3.91736581 0.69584017 6.97959015 0 11 C-0.99 11 -1.98 11 -3 11 C-3 11.99 -3 12.98 -3 14 C-1.68 14.33 -0.36 14.66 1 15 C0.25 19.75 0.25 19.75 -2 22 C-2 21.01 -2 20.02 -2 19 C-2.66 19 -3.32 19 -4 19 C-4 18.01 -4 17.02 -4 16 C-4.33 15.01 -4.66 14.02 -5 13 C-4.00390625 9.86328125 -4.00390625 9.86328125 -2.5625 6.3125 C-2.08941406 5.13300781 -1.61632812 3.95351562 -1.12890625 2.73828125 C-0.75636719 1.83464844 -0.38382813 0.93101562 0 0 Z " fill="#E0DAD9" transform="translate(206,188)"/>
<path d="M0 0 C1.65 0 3.3 0 5 0 C3.515 1.485 3.515 1.485 2 3 C2.99 4.485 2.99 4.485 4 6 C4.125 9.1875 4.125 9.1875 4 12 C1 11 1 11 -0.5 9.4375 C-2.01472806 7.65404732 -2.01472806 7.65404732 -5 8 C-4.01 6.02 -3.02 4.04 -2 2 C-1.34 2 -0.68 2 0 2 C0 1.34 0 0.68 0 0 Z " fill="#D6D2D2" transform="translate(311,83)"/>
<path d="M0 0 C0.99 0 1.98 0 3 0 C3.66 3.96 4.32 7.92 5 12 C3 12 1 12 -1 12 C-2.09898702 8.70303895 -1.87124444 7.59505097 -1.0625 4.3125 C-0.86785156 3.50425781 -0.67320312 2.69601563 -0.47265625 1.86328125 C-0.31667969 1.24839844 -0.16070312 0.63351563 0 0 Z " fill="#FBF9FA" transform="translate(250,109)"/>
<path d="M0 0 C1.60495567 0.11442461 3.20898119 0.24194694 4.8125 0.375 C5.70582031 0.44460937 6.59914062 0.51421875 7.51953125 0.5859375 C10 1 10 1 13 3 C12.67 3.99 12.34 4.98 12 6 C10 6.75 10 6.75 8 7 C7.67 6.67 7.34 6.34 7 6 C5.48530552 5.76807135 3.96245438 5.58784762 2.4375 5.4375 C1.61121094 5.35371094 0.78492188 5.26992187 -0.06640625 5.18359375 C-0.70449219 5.12300781 -1.34257812 5.06242187 -2 5 C-0.68 4.01 0.64 3.02 2 2 C1.34 1.34 0.68 0.68 0 0 Z " fill="#F0EDEC" transform="translate(143,85)"/>
<path d="M0 0 C2.52588702 2.36292656 3.88820837 3.66462511 5 7 C3.78515625 10.13671875 3.78515625 10.13671875 2.0625 13.6875 C1.49660156 14.86699219 0.93070312 16.04648438 0.34765625 17.26171875 C-0.09707031 18.16535156 -0.54179688 19.06898437 -1 20 C-2.0516399 16.84508031 -1.98032423 15.96644412 -1.1875 12.875 C-0.93033203 11.81925781 -0.93033203 11.81925781 -0.66796875 10.7421875 C0 9 0 9 2 8 C2 7.01 2 6.02 2 5 C1.01 5 0.02 5 -1 5 C-1.33 6.32 -1.66 7.64 -2 9 C-2.33 8.34 -2.66 7.68 -3 7 C-2.06421005 4.64018187 -1.06652192 2.30368736 0 0 Z " fill="#8F151D" transform="translate(82,81)"/>
<path d="M0 0 C0.33 0.66 0.66 1.32 1 2 C1.66 2.33 2.32 2.66 3 3 C2.34 3 1.68 3 1 3 C0.7763932 5.9254644 0.7763932 5.9254644 2 8 C0.71254964 8.38922918 -0.58019597 8.76098036 -1.875 9.125 C-2.95394531 9.43824219 -2.95394531 9.43824219 -4.0546875 9.7578125 C-4.69664063 9.83773437 -5.33859375 9.91765625 -6 10 C-6.66 9.34 -7.32 8.68 -8 8 C-8 6 -8 6 -7 4 C-4 2.875 -4 2.875 -1 2 C-0.67 1.34 -0.34 0.68 0 0 Z " fill="#A51217" transform="translate(75,96)"/>
<path d="M0 0 C1.32 1.32 2.64 2.64 4 4 C3.01 4.495 3.01 4.495 2 5 C2.33 5.66 2.66 6.32 3 7 C3.07116382 9.37402501 3.08409085 11.75000677 3.0625 14.125 C3.05347656 15.40632813 3.04445312 16.68765625 3.03515625 18.0078125 C3.02355469 18.99523437 3.01195312 19.98265625 3 21 C2.67 21 2.34 21 2 21 C1.855625 20.05125 1.71125 19.1025 1.5625 18.125 C1.17064601 15.1065506 1.17064601 15.1065506 0 13 C0.9375 10.875 0.9375 10.875 2 9 C0.35 9.66 -1.3 10.32 -3 11 C-2.01 7.37 -1.02 3.74 0 0 Z " fill="#D8D4D3" transform="translate(188,95)"/>
<path d="M0 0 C3.08760939 4.63141409 4.73014523 9.80862322 6.6875 15 C7.11611328 16.10601563 7.54472656 17.21203125 7.98632812 18.3515625 C8.38658203 19.41117188 8.78683594 20.47078125 9.19921875 21.5625 C9.56877686 22.53316406 9.93833496 23.50382812 10.3190918 24.50390625 C11 27 11 27 10 30 C4.93854974 20.78816052 0 10.70846879 0 0 Z " fill="#971C25" transform="translate(35,14)"/>
<path d="M0 0 C0.66 0 1.32 0 2 0 C2.66 3.3 3.32 6.6 4 10 C4.66 10 5.32 10 6 10 C6 10.66 6 11.32 6 12 C4.02 12.33 2.04 12.66 0 13 C-1.57170996 9.85658007 -1.23175783 6.44228549 -1 3 C-0.67 2.01 -0.34 1.02 0 0 Z " fill="#CA0B08" transform="translate(31,13)"/>
<path d="M0 0 C0.66 0 1.32 0 2 0 C2 1.65 2 3.3 2 5 C3.89179203 5.6814823 3.89179203 5.6814823 6 6 C6.66 5.34 7.32 4.68 8 4 C8.33 4.99 8.66 5.98 9 7 C9.99 7.33 10.98 7.66 12 8 C11.01 8.495 11.01 8.495 10 9 C9.67 9.66 9.34 10.32 9 11 C5 11 5 11 2.8125 8.875 C0.87482933 5.80145342 0.33365001 3.58673761 0 0 Z " fill="#E6E4E5" transform="translate(190,117)"/>
<path d="M0 0 C1.485 0.99 1.485 0.99 3 2 C3.99 2 4.98 2 6 2 C7.07421875 7.95703125 7.07421875 7.95703125 7 10 C5.51953125 11.76171875 5.51953125 11.76171875 4 13 C3.32694982 11.39850114 2.66177773 9.79368971 2 8.1875 C1.62875 7.29417969 1.2575 6.40085937 0.875 5.48046875 C0 3 0 3 0 0 Z " fill="#9D1114" transform="translate(42,50)"/>
<path d="M0 0 C0.99 0.33 1.98 0.66 3 1 C3.31563182 6.26053037 2.66590937 9.44573816 0 14 C-2 11 -2 11 -1.7578125 8.30078125 C-1.54898438 7.31464844 -1.34015625 6.32851562 -1.125 5.3125 C-0.92132813 4.31863281 -0.71765625 3.32476562 -0.5078125 2.30078125 C-0.34023437 1.54152344 -0.17265625 0.78226563 0 0 Z " fill="#FDFBF9" transform="translate(192,238)"/>
<path d="M0 0 C0.75 1.625 0.75 1.625 1 4 C-0.9375 7.25 -0.9375 7.25 -3 10 C-3.99 9.67 -4.98 9.34 -6 9 C-5.45276317 5.62537285 -4.9451 3.91765 -3 1 C-2.01 0.67 -1.02 0.34 0 0 Z " fill="#F6F5F5" transform="translate(238,125)"/>
<path d="M0 0 C0.99 0 1.98 0 3 0 C3.625 1.875 3.625 1.875 4 4 C3.34 4.66 2.68 5.32 2 6 C1.319375 7.051875 1.319375 7.051875 0.625 8.125 C0.08875 8.74375 -0.4475 9.3625 -1 10 C-2.32 10 -3.64 10 -5 10 C-4.39816251 7.97954558 -3.72693904 5.97888961 -3 4 C-2.34 3.67 -1.68 3.34 -1 3 C-0.67 2.01 -0.34 1.02 0 0 Z " fill="#AB1317" transform="translate(81,86)"/>
<path d="M0 0 C2.97 1.32 5.94 2.64 9 4 C8.67 4.66 8.34 5.32 8 6 C6.68 5.67 5.36 5.34 4 5 C4 6.32 4 7.64 4 9 C1.00675737 7.9024777 0.15389099 7.32317108 -1.25 4.375 C-1.4975 3.59125 -1.745 2.8075 -2 2 C-1.34 2 -0.68 2 0 2 C0 1.34 0 0.68 0 0 Z " fill="#E6E5E5" transform="translate(251,119)"/>
<path d="M0 0 C0.33 0.66 0.66 1.32 1 2 C1.99 2 2.98 2 4 2 C4.103125 3.051875 4.20625 4.10375 4.3125 5.1875 C4.9899286 8.94414951 6.06721002 10.80669482 8 14 C8.1875 16.8125 8.1875 16.8125 8 19 C5.41589795 15.85512507 3.86214318 12.69294159 2.3125 8.9375 C1.87550781 7.89464844 1.43851563 6.85179688 0.98828125 5.77734375 C0 3 0 3 0 0 Z " fill="#94181D" transform="translate(47,63)"/>
<path d="M0 0 C2.38671875 0.5546875 2.38671875 0.5546875 5 2 C6.14453125 5.2578125 6.14453125 5.2578125 6.8125 9.125 C7.04582031 10.40632813 7.27914062 11.68765625 7.51953125 13.0078125 C7.67808594 13.99523438 7.83664063 14.98265625 8 16 C7.34 16 6.68 16 6 16 C5.49487756 14.39743892 4.99608373 12.79288208 4.5 11.1875 C4.08234375 9.84751953 4.08234375 9.84751953 3.65625 8.48046875 C3 6 3 6 3 3 C2.34 3 1.68 3 1 3 C0.67 3.66 0.34 4.32 0 5 C0 3.35 0 1.7 0 0 Z " fill="#B61A1F" transform="translate(29,7)"/>
<path d="M0 0 C0.33 0 0.66 0 1 0 C1.13277344 0.74765625 1.26554687 1.4953125 1.40234375 2.265625 C1.57894531 3.25046875 1.75554687 4.2353125 1.9375 5.25 C2.19853516 6.71179688 2.19853516 6.71179688 2.46484375 8.203125 C3.44824977 13.78234961 3.44824977 13.78234961 7 18 C5.02 18.33 3.04 18.66 1 19 C0 16 0 16 1 13 C0.67 12.34 0.34 11.68 0 11 C-0.07033769 9.12620395 -0.0843022 7.24998898 -0.0625 5.375 C-0.05347656 4.37210938 -0.04445313 3.36921875 -0.03515625 2.3359375 C-0.02355469 1.56507813 -0.01195313 0.79421875 0 0 Z " fill="#9D151C" transform="translate(115,146)"/>
<path d="M0 0 C0.99 0 1.98 0 3 0 C3.80967438 2.91482778 4.21845993 4.46113217 3.0625 7.3125 C2.5365625 8.1478125 2.5365625 8.1478125 2 9 C1.01 9 0.02 9 -1 9 C-1.66 8.34 -2.32 7.68 -3 7 C-1.125 1.125 -1.125 1.125 0 0 Z " fill="#EBE8E8" transform="translate(309,90)"/>
<path d="M0 0 C0.66 1.32 1.32 2.64 2 4 C2.99 4 3.98 4 5 4 C5.33 6.64 5.66 9.28 6 12 C5.01 12 4.02 12 3 12 C2.29773859 10.75823305 1.61370891 9.50614401 0.9375 8.25 C0.36322266 7.20585938 0.36322266 7.20585938 -0.22265625 6.140625 C-1.1312406 3.63859372 -0.88336837 2.4667645 0 0 Z " fill="#BA1820" transform="translate(60,86)"/>
<path d="M0 0 C0.99 0.33 1.98 0.66 3 1 C1.07469586 4.99870861 -0.84296719 8.84296719 -4 12 C-5.39864092 8.82127065 -4.89282517 7.69888978 -3.6875 4.3125 C-2 1 -2 1 0 0 Z " fill="#BB1517" transform="translate(96,53)"/>
<path d="M0 0 C2 0 4 0 6 0 C5.71872579 1.48117801 5.42466268 2.95993249 5.125 4.4375 C4.96257812 5.26121094 4.80015625 6.08492187 4.6328125 6.93359375 C4.42398438 7.61550781 4.21515625 8.29742187 4 9 C3.01 9.495 3.01 9.495 2 10 C2.33 8.35 2.66 6.7 3 5 C1.35 5.66 -0.3 6.32 -2 7 C-1.34 4.69 -0.68 2.38 0 0 Z " fill="#DEDDDE" transform="translate(212,239)"/>
<path d="M0 0 C1.45606519 4.52092968 0.27032841 7.51648796 -1 12 C-1.99 11.67 -2.98 11.34 -4 11 C-3.67 8.03 -3.34 5.06 -3 2 C-2.34 2 -1.68 2 -1 2 C-0.67 1.34 -0.34 0.68 0 0 Z " fill="#FEFCFB" transform="translate(309,96)"/>
<path d="M0 0 C0.66 0.33 1.32 0.66 2 1 C1.01 3.97 0.02 6.94 -1 10 C-1.99 9.01 -2.98 8.02 -4 7 C-4 5.68 -4 4.36 -4 3 C-3.34 3 -2.68 3 -2 3 C-2 2.34 -2 1.68 -2 1 C-1.34 0.67 -0.68 0.34 0 0 Z " fill="#B6151C" transform="translate(87,76)"/>
<path d="M0 0 C2.97903734 2.97903734 4 5.80285329 4 10 C4.99 10.33 5.98 10.66 7 11 C6.01 11.66 5.02 12.32 4 13 C4.99 13.33 5.98 13.66 7 14 C6.34 14 5.68 14 5 14 C4.67 14.99 4.34 15.98 4 17 C1.60251894 11.26689311 0.41588046 6.19518473 0 0 Z " fill="#A2151F" transform="translate(37,33)"/>
<path d="M0 0 C-0.1875 2.375 -0.1875 2.375 -1 5 C-3.5625 6.3125 -3.5625 6.3125 -6 7 C-6.6875 5.1875 -6.6875 5.1875 -7 3 C-4.8243318 -0.20624788 -4.07796486 0 0 0 Z " fill="#CC0D16" transform="translate(114,26)"/>
<path d="M0 0 C0.33 0 0.66 0 1 0 C1.13277344 0.71027344 1.26554687 1.42054688 1.40234375 2.15234375 C1.57894531 3.07144531 1.75554687 3.99054688 1.9375 4.9375 C2.11152344 5.85402344 2.28554687 6.77054688 2.46484375 7.71484375 C2.77714988 9.95289844 2.77714988 9.95289844 4 11 C4.39454223 12.84599688 4.74176866 14.70225822 5.0625 16.5625 C5.23910156 17.57441406 5.41570312 18.58632812 5.59765625 19.62890625 C5.73042969 20.41136719 5.86320312 21.19382813 6 22 C1.71381927 18.38616135 1.0374647 13.30259735 0 8 C-0.20493333 5.26755554 -0.15528521 2.74337208 0 0 Z " fill="#8B151E" transform="translate(109,144)"/>
<path d="M0 0 C0.66 0.66 1.32 1.32 2 2 C3.32 1.34 4.64 0.68 6 0 C7.125 4.75 7.125 4.75 6 7 C4.35 7 2.7 7 1 7 C0.34 5.02 -0.32 3.04 -1 1 C-0.67 0.67 -0.34 0.34 0 0 Z " fill="#E8E6E8" transform="translate(315,96)"/>
<path d="M0 0 C0.33 0 0.66 0 1 0 C1 4.95 1 9.9 1 15 C0.01 15.33 -0.98 15.66 -2 16 C-1.85975781 13.52039864 -1.7130815 11.04147598 -1.5625 8.5625 C-1.52318359 7.85544922 -1.48386719 7.14839844 -1.44335938 6.41992188 C-1.11328125 1.11328125 -1.11328125 1.11328125 0 0 Z " fill="#B90F0F" transform="translate(113,30)"/>
<path d="M0 0 C0.28875 0.61875 0.5775 1.2375 0.875 1.875 C1.93720042 4.13325765 1.93720042 4.13325765 4 6 C3.67 6.99 3.34 7.98 3 9 C2.67 8.34 2.34 7.68 2 7 C0.68 7 -0.64 7 -2 7 C-2.12375 7.78375 -2.2475 8.5675 -2.375 9.375 C-3 12 -3 12 -5 14 C-4.34580901 8.93001981 -2.1453591 4.58009223 0 0 Z " fill="#961317" transform="translate(96,47)"/>
<path d="M0 0 C0.66 0.99 1.32 1.98 2 3 C2.66 2.34 3.32 1.68 4 1 C4.99 0.67 5.98 0.34 7 0 C5.25 5.75 5.25 5.75 3 8 C2.67 7.34 2.34 6.68 2 6 C0.35 6.66 -1.3 7.32 -3 8 C-1.125 2.25 -1.125 2.25 0 0 Z " fill="#E2E0E0" transform="translate(287,123)"/>
<path d="M0 0 C0.33 0.66 0.66 1.32 1 2 C1.99 2 2.98 2 4 2 C4.33 2.99 4.66 3.98 5 5 C3.35 6.32 1.7 7.64 0 9 C-0.66 8.67 -1.32 8.34 -2 8 C-1.79375 7.38125 -1.5875 6.7625 -1.375 6.125 C-1.25125 5.42375 -1.1275 4.7225 -1 4 C-1.66 3.34 -2.32 2.68 -3 2 C-2.01 1.34 -1.02 0.68 0 0 Z " fill="#EFE9EA" transform="translate(263,120)"/>
<path d="M0 0 C0.33 0.66 0.66 1.32 1 2 C1.66 2 2.32 2 3 2 C1.82744291 5.33727786 0.81131596 7.77437487 -2 10 C-2.66 10 -3.32 10 -4 10 C-2.8905928 6.51329166 -1.73662334 3.22515763 0 0 Z " fill="#E4E3E3" transform="translate(153,101)"/>
<path d="M0 0 C1.51266251 4.36991392 0.80158879 8.2082133 -1.0625 12.375 C-1.371875 12.91125 -1.68125 13.4475 -2 14 C-3.31626692 10.38026598 -4 7.90432869 -4 4 C-3.34 4 -2.68 4 -2 4 C-1.34 2.68 -0.68 1.36 0 0 Z " fill="#C4BDBD" transform="translate(306,93)"/>
<path d="M0 0 C2 1.25 2 1.25 4 3 C4 4.32 4 5.64 4 7 C3.38125 7.103125 2.7625 7.20625 2.125 7.3125 C-0.36526484 7.87525373 -0.36526484 7.87525373 -2 11 C-1.85892253 9.54119891 -1.71197585 8.08296449 -1.5625 6.625 C-1.48128906 5.81289062 -1.40007812 5.00078125 -1.31640625 4.1640625 C-1 2 -1 2 0 0 Z " fill="#FDFBFB" transform="translate(221,91)"/>
<path d="M0 0 C1.9375 0.6875 1.9375 0.6875 4 2 C4.75 4.625 4.75 4.625 5 7 C3.02 7.99 3.02 7.99 1 9 C1 8.01 1 7.02 1 6 C0.34 5.67 -0.32 5.34 -1 5 C-0.67 3.35 -0.34 1.7 0 0 Z " fill="#FAF7F7" transform="translate(315,90)"/>
<path d="M0 0 C0.33 0 0.66 0 1 0 C1.25 5.625 1.25 5.625 -1 9 C-2.32 8.67 -3.64 8.34 -5 8 C-5 7.01 -5 6.02 -5 5 C-4.01 5 -3.02 5 -2 5 C-1.34 3.35 -0.68 1.7 0 0 Z " fill="#EFEDEC" transform="translate(208,194)"/>
<path d="M0 0 C1.5625 1.125 1.5625 1.125 3 3 C2.9375 6.0625 2.9375 6.0625 2 9 C-0.0625 10.375 -0.0625 10.375 -2 11 C-2 8.69 -2 6.38 -2 4 C-1.34 4 -0.68 4 0 4 C0 2.68 0 1.36 0 0 Z " fill="#FDFBFC" transform="translate(131,109)"/>
<path d="M0 0 C0.33 0.99 0.66 1.98 1 3 C-0.9375 5.6875 -0.9375 5.6875 -3 8 C-3.66 7.01 -4.32 6.02 -5 5 C-5.99 5.495 -5.99 5.495 -7 6 C-7 5.01 -7 4.02 -7 3 C-2.77777778 0 -2.77777778 0 0 0 Z " fill="#EBE6E7" transform="translate(247,108)"/>
<path d="M0 0 C0.66 0.33 1.32 0.66 2 1 C2 1.33 2 1.66 2 2 C2.66 2 3.32 2 4 2 C3.67 3.32 3.34 4.64 3 6 C0.16032769 6 -2.23735711 5.59732819 -5 5 C-3.35 3.35 -1.7 1.7 0 0 Z " fill="#EAE8E9" transform="translate(172,124)"/>
<path d="M0 0 C0.33 0 0.66 0 1 0 C1 2.64 1 5.28 1 8 C0.01 8.495 0.01 8.495 -1 9 C-1.46898963 11.8159849 -1.46898963 11.8159849 -1.625 15.0625 C-1.69976563 16.16722656 -1.77453125 17.27195312 -1.8515625 18.41015625 C-1.90054687 19.26480469 -1.94953125 20.11945312 -2 21 C-2.33 21 -2.66 21 -3 21 C-3.02701408 18.89590361 -3.04640223 16.79170822 -3.0625 14.6875 C-3.07410156 13.51574219 -3.08570312 12.34398437 -3.09765625 11.13671875 C-3 8 -3 8 -2 5 C-1.34 5 -0.68 5 0 5 C0 3.35 0 1.7 0 0 Z " fill="#C8262C" transform="translate(32,28)"/>
<path d="M0 0 C0.66 1.32 1.32 2.64 2 4 C2.99 4 3.98 4 5 4 C4.34 5.65 3.68 7.3 3 9 C1.02 8.01 -0.96 7.02 -3 6 C-2.01 4.02 -1.02 2.04 0 0 Z " fill="#E0DBDD" transform="translate(231,130)"/>
<path d="M0 0 C0.33 0 0.66 0 1 0 C1.22786458 2.01822917 1.45572917 4.03645833 1.68359375 6.0546875 C1.91292961 8.07404316 1.91292961 8.07404316 3 10 C2.34 10.66 1.68 11.32 1 12 C0.34 12 -0.32 12 -1 12 C-2.3899408 9.2201184 -2.18488204 7.0813674 -2 4 C-1 1.625 -1 1.625 0 0 Z " fill="#FDFBFA" transform="translate(158,114)"/>
<path d="M0 0 C1.98 0 3.96 0 6 0 C5.34 3.3 4.68 6.6 4 10 C3.67 8.68 3.34 7.36 3 6 C2.16666667 3.83333333 2.16666667 3.83333333 0 3 C0 2.01 0 1.02 0 0 Z " fill="#E1DEDA" transform="translate(198,210)"/>
<path d="M0 0 C1.32 0.66 2.64 1.32 4 2 C4.33 1.67 4.66 1.34 5 1 C5.66 1.66 6.32 2.32 7 3 C6.67 3.66 6.34 4.32 6 5 C4.35 4.67 2.7 4.34 1 4 C1 4.66 1 5.32 1 6 C0.01 6.33 -0.98 6.66 -2 7 C-1.34 4.69 -0.68 2.38 0 0 Z " fill="#EAE8E7" transform="translate(218,160)"/>
<path d="M0 0 C0.99 0.33 1.98 0.66 3 1 C1.95125002 3.62187494 1.35068687 4.79371361 -1.125 6.25 C-1.74375 6.4975 -2.3625 6.745 -3 7 C-2.25 2.25 -2.25 2.25 0 0 Z " fill="#EDE9EA" transform="translate(146,115)"/>
<path d="M0 0 C0.33 0 0.66 0 1 0 C1 4.95 1 9.9 1 15 C0.67 15 0.34 15 0 15 C-0.33 13.02 -0.66 11.04 -1 9 C-1.66 9 -2.32 9 -3 9 C-2.5359375 7.88625 -2.5359375 7.88625 -2.0625 6.75 C-1.1905075 4.49307824 -0.52332993 2.3549847 0 0 Z " fill="#B2A9AC" transform="translate(221,107)"/>
<path d="M0 0 C1.41377341 2.63904371 2.37240135 5.07120629 3 8 C1.68 8.33 0.36 8.66 -1 9 C-1.09765625 2.84765625 -1.09765625 2.84765625 -1 1 C-0.67 0.67 -0.34 0.34 0 0 Z " fill="#C21019" transform="translate(114,153)"/>
<path d="M0 0 C0.99 0.33 1.98 0.66 3 1 C1.70700306 3.88437779 0.34058637 5.87219421 -2 8 C-2.66 7.67 -3.32 7.34 -4 7 C-4 4 -4 4 -2 1.8125 C-1.34 1.214375 -0.68 0.61625 0 0 Z " fill="#E9E7E8" transform="translate(210,252)"/>
<path d="M0 0 C2.39763185 2.39763185 2.34280586 3.33273498 2.625 6.625 C2.69976562 7.44226563 2.77453125 8.25953125 2.8515625 9.1015625 C2.90054688 9.72804688 2.94953125 10.35453125 3 11 C2.01 11.495 2.01 11.495 1 12 C1 10.68 1 9.36 1 8 C0.34 7.67 -0.32 7.34 -1 7 C-0.67 4.69 -0.34 2.38 0 0 Z " fill="#A11E22" transform="translate(53,62)"/>
<path d="M0 0 C1.485 0.99 1.485 0.99 3 2 C2.67 3.32 2.34 4.64 2 6 C2.99 6.33 3.98 6.66 5 7 C4.34 8.32 3.68 9.64 3 11 C0.60236815 8.60236815 0.65719414 7.66726502 0.375 4.375 C0.30023438 3.55773437 0.22546875 2.74046875 0.1484375 1.8984375 C0.09945312 1.27195312 0.05046875 0.64546875 0 0 Z " fill="#B6151A" transform="translate(50,63)"/>
<path d="M0 0 C1 2 1 2 0.44140625 3.9453125 C0.15136719 4.66460937 -0.13867188 5.38390625 -0.4375 6.125 C-0.72496094 6.84945312 -1.01242188 7.57390625 -1.30859375 8.3203125 C-1.53675781 8.87460938 -1.76492187 9.42890625 -2 10 C-2.66 10 -3.32 10 -4 10 C-4.25 6.6875 -4.25 6.6875 -4 3 C-2 1.0625 -2 1.0625 0 0 Z " fill="#A11924" transform="translate(98,56)"/>
<path d="M0 0 C1.98 0.66 3.96 1.32 6 2 C5.67 3.32 5.34 4.64 5 6 C4.01 6 3.02 6 2 6 C1.67 5.34 1.34 4.68 1 4 C0.01 4.495 0.01 4.495 -1 5 C-0.67 3.35 -0.34 1.7 0 0 Z " fill="#E4E0E1" transform="translate(290,115)"/>
<path d="M0 0 C0.66 0.66 1.32 1.32 2 2 C1.625 5.625 1.625 5.625 1 9 C1.66 9 2.32 9 3 9 C3 9.66 3 10.32 3 11 C2.34 11 1.68 11 1 11 C1 11.66 1 12.32 1 13 C0.34 13 -0.32 13 -1 13 C-0.67 8.71 -0.34 4.42 0 0 Z " fill="#DBD7DA" transform="translate(294,95)"/>
<path d="M0 0 C1.32 0.33 2.64 0.66 4 1 C4.28571429 8.42857143 4.28571429 8.42857143 2 12 C1.34 9.69 0.68 7.38 0 5 C0.66 4.67 1.32 4.34 2 4 C2 3.34 2 2.68 2 2 C1.34 1.34 0.68 0.68 0 0 Z " fill="#AFAAAA" transform="translate(153,86)"/>
<path d="M0 0 C2.97 0.495 2.97 0.495 6 1 C6 1.99 6 2.98 6 4 C3.69 4 1.38 4 -1 4 C-0.67 2.68 -0.34 1.36 0 0 Z " fill="#FCFAFB" transform="translate(199,125)"/>
<path d="M0 0 C-0.33 2.64 -0.66 5.28 -1 8 C-2.5 6.75 -2.5 6.75 -4 5 C-4 3.68 -4 2.36 -4 1 C-2 0 -2 0 0 0 Z " fill="#B31513" transform="translate(101,45)"/>
<path d="M0 0 C3.57011026 3.732388 4.10913442 8.0949989 5 13 C3.05073178 11.05073178 2.06431004 9.4892942 0.8125 7.0625 C0.44769531 6.37285156 0.08289062 5.68320312 -0.29296875 4.97265625 C-1 3 -1 3 0 0 Z " fill="#871418" transform="translate(41,31)"/>
<path d="M0 0 C0.66 1.32 1.32 2.64 2 4 C0 5 -2 6 -4 7 C-4 5.68 -4 4.36 -4 3 C-2.68 2.67 -1.36 2.34 0 2 C0 1.34 0 0.68 0 0 Z " fill="#F7F5F6" transform="translate(217,234)"/>
<path d="M0 0 C-0.66 1.98 -1.32 3.96 -2 6 C-3.32 5.34 -4.64 4.68 -6 4 C-6 3.34 -6 2.68 -6 2 C-3 0 -3 0 0 0 Z " fill="#FAF7F6" transform="translate(190,104)"/>
<path d="M0 0 C0.33 0 0.66 0 1 0 C1 1.98 1 3.96 1 6 C1.66 6 2.32 6 3 6 C3 6.66 3 7.32 3 8 C2.34 8 1.68 8 1 8 C1 8.66 1 9.32 1 10 C0.34 10 -0.32 10 -1 10 C-0.67 6.7 -0.34 3.4 0 0 Z " fill="#DEDEDC" transform="translate(218,96)"/>
<path d="M0 0 C1.09658936 3.28976808 0.79953138 4.71303767 0 8 C-1.32 7.67 -2.64 7.34 -4 7 C-3.34 5.35 -2.68 3.7 -2 2 C-1.34 2 -0.68 2 0 2 C0 1.34 0 0.68 0 0 Z " fill="#F4F2F3" transform="translate(158,94)"/>
<path d="M0 0 C0.99 0 1.98 0 3 0 C3 3.3 3 6.6 3 10 C1 6 1 6 1 3 C0.34 2.67 -0.32 2.34 -1 2 C-0.67 1.34 -0.34 0.68 0 0 Z " fill="#A2110F" transform="translate(109,32)"/>
<path d="M0 0 C0.33 0.99 0.66 1.98 1 3 C1.66 3 2.32 3 3 3 C3 5 3 5 1.625 6.4375 C1.08875 6.953125 0.5525 7.46875 0 8 C-0.66 8.99 -1.32 9.98 -2 11 C-1.125 3.375 -1.125 3.375 0 0 Z " fill="#D5D2D3" transform="translate(193,226)"/>
<path d="M0 0 C0.66 0.33 1.32 0.66 2 1 C1.3125 3.375 1.3125 3.375 0 6 C-2.625 7.3125 -2.625 7.3125 -5 8 C-2.25 2.25 -2.25 2.25 0 0 Z " fill="#FAF8F9" transform="translate(287,128)"/>
<path d="M0 0 C1.24546405 2.49092811 0.7767578 3.41080733 0 6 C-1.65 6 -3.3 6 -5 6 C-4.1875 3.5625 -4.1875 3.5625 -3 1 C-2.01 0.67 -1.02 0.34 0 0 Z " fill="#FCFAFB" transform="translate(296,111)"/>
<path d="M0 0 C0.66 0 1.32 0 2 0 C1.25 6.75 1.25 6.75 -1 9 C-1.09765625 2.84765625 -1.09765625 2.84765625 -1 1 C-0.67 0.67 -0.34 0.34 0 0 Z " fill="#C20F13" transform="translate(31,36)"/>
<path d="M0 0 C1.32 0 2.64 0 4 0 C4.33 1.32 4.66 2.64 5 4 C4.01 4.495 4.01 4.495 3 5 C2.67 5.99 2.34 6.98 2 8 C0.74335022 5.09399739 0 3.20395416 0 0 Z " fill="#BB171D" transform="translate(34,25)"/>
<path d="M0 0 C1.65 0 3.3 0 5 0 C5.33 1.32 5.66 2.64 6 4 C4.35 4 2.7 4 1 4 C0.67 2.68 0.34 1.36 0 0 Z " fill="#FDFBFC" transform="translate(197,257)"/>
<path d="M0 0 C0.99 0.33 1.98 0.66 3 1 C3 1.99 3 2.98 3 4 C2.34 4 1.68 4 1 4 C1 4.66 1 5.32 1 6 C0.01 6 -0.98 6 -2 6 C-1.34 4.02 -0.68 2.04 0 0 Z " fill="#FCFAF7" transform="translate(199,212)"/>
<path d="M0 0 C0.99 0 1.98 0 3 0 C3 1.65 3 3.3 3 5 C1.68 5.33 0.36 5.66 -1 6 C-0.67 4.02 -0.34 2.04 0 0 Z " fill="#F4F3F3" transform="translate(194,118)"/>
<path d="M0 0 C1.45606519 4.52092968 0.27032841 7.51648796 -1 12 C-2.084894 8.74531799 -2.21314985 6.4103976 -2 3 C-1.34 2.01 -0.68 1.02 0 0 Z " fill="#D8D7D8" transform="translate(220,225)"/>
<path d="M0 0 C0.99 0.33 1.98 0.66 3 1 C2.34 2.98 1.68 4.96 1 7 C0.67 6.01 0.34 5.02 0 4 C-0.66 4 -1.32 4 -2 4 C-1.34 2.68 -0.68 1.36 0 0 Z " fill="#FAF6F6" transform="translate(213,177)"/>
<path d="M0 0 C1.485 0.99 1.485 0.99 3 2 C2.67 4.97 2.34 7.94 2 11 C1.67 11 1.34 11 1 11 C0.67 7.37 0.34 3.74 0 0 Z " fill="#BB1E26" transform="translate(109,138)"/>
<path d="M0 0 C0.66 0 1.32 0 2 0 C1.34 3.3 0.68 6.6 0 10 C-0.33 10 -0.66 10 -1 10 C-1.125 2.25 -1.125 2.25 0 0 Z " fill="#BA0A07" transform="translate(30,10)"/>
</svg>
